{
    "asset" : {
        "generator" : "Khronos glTF Blender I/O v1.8.19",
        "version" : "2.0"
    },
    "scene" : 0,
    "scenes" : [
        {
            "name" : "Scene",
            "nodes" : [
                0,
                1,
                2,
                3,
                4,
                5
            ]
        }
    ],
    "nodes" : [
        {
            "mesh" : 0,
            "name" : "\u5730\u9762",
            "scale" : [
                7.729999542236328,
                1,
                14.730884552001953
            ]
        },
        {
            "mesh" : 1,
            "name" : "\u80cc\u666f",
            "rotation" : [
                0.7071068286895752,
                0,
                0,
                0.7071068286895752
            ],
            "scale" : [
                25.920513153076172,
                2.5920512676239014,
                9.072179794311523
            ],
            "translation" : [
                0,
                2,
                -45.910743713378906
            ]
        },
        {
            "mesh" : 2,
            "name" : "\u516c\u8def",
            "translation" : [
                0,
                2.119999885559082,
                0.38999998569488525
            ]
        },
        {
            "mesh" : 3,
            "name" : "\u9ec4\u7ebf",
            "translation" : [
                0,
                2.119999885559082,
                0.38999998569488525
            ]
        },
        {
            "mesh" : 4,
            "name" : "\u767d\u7ebf",
            "translation" : [
                0,
                2.119999885559082,
                0.38999998569488525
            ]
        },
        {
            "mesh" : 5,
            "name" : "\u6c34\u6ef4",
            "scale" : [
                0.8164652585983276,
                0.8164652585983276,
                0.8164652585983276
            ],
            "translation" : [
                -0.7096084356307983,
                1.1149227619171143,
                11.57762622833252
            ]
        }
    ],
    "materials" : [
        {
            "doubleSided" : true,
            "name" : "\u5730\u9762\u6750\u8d28",
            "pbrMetallicRoughness" : {
                "baseColorFactor" : [
                    0.0331047922372818,
                    0.030713457614183426,
                    0.04970657080411911,
                    1
                ],
                "roughnessFactor" : 0.31496065855026245
            }
        },
        {
            "doubleSided" : true,
            "emissiveFactor" : [
                0.0008848137804307044,
                0,
                0.0090178232640028
            ],
            "name" : "\u80cc\u666f\u6750\u8d28",
            "pbrMetallicRoughness" : {
                "baseColorFactor" : [
                    0.03954625129699707,
                    0.036889445036649704,
                    0.061246056109666824,
                    1
                ],
                "metallicFactor" : 0
            }
        },
        {
            "doubleSided" : true,
            "name" : "\u516c\u8def\u6750\u8d28",
            "pbrMetallicRoughness" : {
                "baseColorFactor" : [
                    0.08082418143749237,
                    0.007022241596132517,
                    0.43744131922721863,
                    1
                ],
                "metallicFactor" : 0,
                "roughnessFactor" : 0.19685040414333344
            }
        },
        {
            "doubleSided" : true,
            "name" : "\u9ec4\u7ebf\u6750\u8d28",
            "pbrMetallicRoughness" : {
                "baseColorFactor" : [
                    0.8000000715255737,
                    0.21394361555576324,
                    0.002929505193606019,
                    1
                ],
                "metallicFactor" : 0
            }
        },
        {
            "doubleSided" : true,
            "name" : "\u767d\u7ebf\u6750\u8d28",
            "pbrMetallicRoughness" : {
                "metallicFactor" : 0.6377952098846436,
                "roughnessFactor" : 0
            }
        },
        {
            "doubleSided" : true,
            "emissiveFactor" : [
                0.3499999940395355,
                0.3499999940395355,
                0.3499999940395355
            ],
            "name" : "\u6c34\u6ef4\u997c\u6750\u8d28",
            "pbrMetallicRoughness" : {
                "baseColorFactor" : [
                    0.75,
                    0.7285711765289307,
                    1,
                    1
                ]
            }
        }
    ],
    "meshes" : [
        {
            "name" : "\u5730\u9762\u7f51\u683c",
            "primitives" : [
                {
                    "attributes" : {
                        "POSITION" : 0,
                        "NORMAL" : 1,
                        "TEXCOORD_0" : 2
                    },
                    "indices" : 3,
                    "material" : 0
                }
            ]
        },
        {
            "name" : "\u80cc\u666f\u7f51\u683c",
            "primitives" : [
                {
                    "attributes" : {
                        "POSITION" : 4,
                        "NORMAL" : 5,
                        "TEXCOORD_0" : 6
                    },
                    "indices" : 7,
                    "material" : 1
                }
            ]
        },
        {
            "name" : "\u516c\u8def\u7f51\u683c",
            "primitives" : [
                {
                    "attributes" : {
                        "POSITION" : 8,
                        "NORMAL" : 9,
                        "TEXCOORD_0" : 10
                    },
                    "indices" : 11,
                    "material" : 2
                }
            ]
        },
        {
            "name" : "\u9ec4\u7ebf\u7f51\u683c",
            "primitives" : [
                {
                    "attributes" : {
                        "POSITION" : 12,
                        "NORMAL" : 13,
                        "TEXCOORD_0" : 14
                    },
                    "indices" : 15,
                    "material" : 3
                }
            ]
        },
        {
            "name" : "\u767d\u7ebf\u7f51\u683c",
            "primitives" : [
                {
                    "attributes" : {
                        "POSITION" : 16,
                        "NORMAL" : 17,
                        "TEXCOORD_0" : 18
                    },
                    "indices" : 19,
                    "material" : 4
                }
            ]
        },
        {
            "name" : "\u6c34\u6ef4\u7f51\u683c",
            "primitives" : [
                {
                    "attributes" : {
                        "POSITION" : 20,
                        "NORMAL" : 21,
                        "TEXCOORD_0" : 22
                    },
                    "indices" : 23,
                    "material" : 5
                }
            ]
        }
    ],
    "accessors" : [
        {
            "bufferView" : 0,
            "componentType" : 5126,
            "count" : 65280,
            "max" : [
                0.9999995827674866,
                1,
                0.9999992251396179
            ],
            "min" : [
                -0.9999986886978149,
                -1,
                -1
            ],
            "type" : "VEC3"
        },
        {
            "bufferView" : 1,
            "componentType" : 5126,
            "count" : 65280,
            "type" : "VEC3"
        },
        {
            "bufferView" : 2,
            "componentType" : 5126,
            "count" : 65280,
            "type" : "VEC2"
        },
        {
            "bufferView" : 3,
            "componentType" : 5123,
            "count" : 97536,
            "type" : "SCALAR"
        },
        {
            "bufferView" : 4,
            "componentType" : 5126,
            "count" : 4,
            "max" : [
                1,
                0,
                1
            ],
            "min" : [
                -1,
                0,
                -1
            ],
            "type" : "VEC3"
        },
        {
            "bufferView" : 5,
            "componentType" : 5126,
            "count" : 4,
            "type" : "VEC3"
        },
        {
            "bufferView" : 6,
            "componentType" : 5126,
            "count" : 4,
            "type" : "VEC2"
        },
        {
            "bufferView" : 7,
            "componentType" : 5123,
            "count" : 6,
            "type" : "SCALAR"
        },
        {
            "bufferView" : 8,
            "componentType" : 5126,
            "count" : 940,
            "max" : [
                10.11099910736084,
                5.071572303771973,
                11.307854652404785
            ],
            "min" : [
                -0.9682593941688538,
                -1.4645968675613403,
                -42.99747085571289
            ],
            "type" : "VEC3"
        },
        {
            "bufferView" : 9,
            "componentType" : 5126,
            "count" : 940,
            "type" : "VEC3"
        },
        {
            "bufferView" : 10,
            "componentType" : 5126,
            "count" : 940,
            "type" : "VEC2"
        },
        {
            "bufferView" : 11,
            "componentType" : 5123,
            "count" : 1410,
            "type" : "SCALAR"
        },
        {
            "bufferView" : 12,
            "componentType" : 5126,
            "count" : 928,
            "max" : [
                9.941442489624023,
                5.065396785736084,
                11.277518272399902
            ],
            "min" : [
                -0.5505059361457825,
                -1.4100966453552246,
                -42.965049743652344
            ],
            "type" : "VEC3"
        },
        {
            "bufferView" : 13,
            "componentType" : 5126,
            "count" : 928,
            "type" : "VEC3"
        },
        {
            "bufferView" : 14,
            "componentType" : 5126,
            "count" : 928,
            "type" : "VEC2"
        },
        {
            "bufferView" : 15,
            "componentType" : 5123,
            "count" : 1392,
            "type" : "SCALAR"
        },
        {
            "bufferView" : 16,
            "componentType" : 5126,
            "count" : 1232,
            "max" : [
                10.097921371459961,
                5.07307243347168,
                11.307024955749512
            ],
            "min" : [
                -0.9396598935127258,
                -1.414276123046875,
                -42.994972229003906
            ],
            "type" : "VEC3"
        },
        {
            "bufferView" : 17,
            "componentType" : 5126,
            "count" : 1232,
            "type" : "VEC3"
        },
        {
            "bufferView" : 18,
            "componentType" : 5126,
            "count" : 1232,
            "type" : "VEC2"
        },
        {
            "bufferView" : 19,
            "componentType" : 5123,
            "count" : 1848,
            "type" : "SCALAR"
        },
        {
            "bufferView" : 20,
            "componentType" : 5126,
            "count" : 1050,
            "max" : [
                0.20587635040283203,
                0.19930493831634521,
                0.0396062396466732
            ],
            "min" : [
                -0.20587730407714844,
                -0.3708755373954773,
                -0.03961237147450447
            ],
            "type" : "VEC3"
        },
        {
            "bufferView" : 21,
            "componentType" : 5126,
            "count" : 1050,
            "type" : "VEC3"
        },
        {
            "bufferView" : 22,
            "componentType" : 5126,
            "count" : 1050,
            "type" : "VEC2"
        },
        {
            "bufferView" : 23,
            "componentType" : 5123,
            "count" : 1668,
            "type" : "SCALAR"
        }
    ],
    "bufferViews" : [
        {
            "buffer" : 0,
            "byteLength" : 783360,
            "byteOffset" : 0
        },
        {
            "buffer" : 0,
            "byteLength" : 783360,
            "byteOffset" : 783360
        },
        {
            "buffer" : 0,
            "byteLength" : 522240,
            "byteOffset" : 1566720
        },
        {
            "buffer" : 0,
            "byteLength" : 195072,
            "byteOffset" : 2088960
        },
        {
            "buffer" : 0,
            "byteLength" : 48,
            "byteOffset" : 2284032
        },
        {
            "buffer" : 0,
            "byteLength" : 48,
            "byteOffset" : 2284080
        },
        {
            "buffer" : 0,
            "byteLength" : 32,
            "byteOffset" : 2284128
        },
        {
            "buffer" : 0,
            "byteLength" : 12,
            "byteOffset" : 2284160
        },
        {
            "buffer" : 0,
            "byteLength" : 11280,
            "byteOffset" : 2284172
        },
        {
            "buffer" : 0,
            "byteLength" : 11280,
            "byteOffset" : 2295452
        },
        {
            "buffer" : 0,
            "byteLength" : 7520,
            "byteOffset" : 2306732
        },
        {
            "buffer" : 0,
            "byteLength" : 2820,
            "byteOffset" : 2314252
        },
        {
            "buffer" : 0,
            "byteLength" : 11136,
            "byteOffset" : 2317072
        },
        {
            "buffer" : 0,
            "byteLength" : 11136,
            "byteOffset" : 2328208
        },
        {
            "buffer" : 0,
            "byteLength" : 7424,
            "byteOffset" : 2339344
        },
        {
            "buffer" : 0,
            "byteLength" : 2784,
            "byteOffset" : 2346768
        },
        {
            "buffer" : 0,
            "byteLength" : 14784,
            "byteOffset" : 2349552
        },
        {
            "buffer" : 0,
            "byteLength" : 14784,
            "byteOffset" : 2364336
        },
        {
            "buffer" : 0,
            "byteLength" : 9856,
            "byteOffset" : 2379120
        },
        {
            "buffer" : 0,
            "byteLength" : 3696,
            "byteOffset" : 2388976
        },
        {
            "buffer" : 0,
            "byteLength" : 12600,
            "byteOffset" : 2392672
        },
        {
            "buffer" : 0,
            "byteLength" : 12600,
            "byteOffset" : 2405272
        },
        {
            "buffer" : 0,
            "byteLength" : 8400,
            "byteOffset" : 2417872
        },
        {
            "buffer" : 0,
            "byteLength" : 3336,
            "byteOffset" : 2426272
        }
    ],
    "buffers" : [
        {
            "byteLength" : 2429608,
            "uri" : "data:application/octet-stream;base64,"
        }
    ]
}
