<svg width="1920" height="100" viewBox="0 0 1920 100" fill="none" xmlns="http://www.w3.org/2000/svg">
<rect width="1920" height="100" fill="#ECF0F3"/>
<path d="M661.073 100.044H1544.3L1878.79 100.044C1889.81 100.044 1904.06 99.9318 1920 100.065L645.955 100.065C491.26 100.469 175.641 106.583 0 102.521V100.065L645.955 100.065C651.182 100.052 656.225 100.044 661.073 100.044Z" fill="#ECF0F3"/>
<path fill-rule="evenodd" clip-rule="evenodd" d="M109.477 44.0138C107.743 44.5025 107.802 45.7921 107.802 45.7921C107.408 46.1046 107.565 48.5862 107.565 48.5862C107.684 49.4851 107.664 51.2438 107.664 51.2438C108.137 54.8391 104.077 55.816 104.077 55.816L95.9973 58.6297C95.9973 58.6297 91.6618 61.7561 91.6618 61.9182C91.6618 62.0804 82.9909 66.6801 82.9909 66.6801C79.0224 68.3529 74.7777 69.5306 70.4537 69.7259C56.7393 70.345 43.9065 57.709 46.0599 43.8966C47.3211 35.807 53.1544 30.8049 53.1544 30.8049C54.7563 29.4335 56.4907 28.2123 58.3337 27.18C63.4761 24.2995 69.4623 22.9928 75.3473 23.5958C79.2085 23.9915 83.4754 25.0658 86.5235 27.5182C88.1349 28.8146 89.4501 30.4912 90.1247 32.4463C93.1989 41.3565 89.1394 46.2414 89.1394 46.2414C85.5134 52.377 79.089 53.3538 79.0887 53.3541C74.8438 54.0061 69.8208 53.4716 66.5477 50.4663C65.8559 49.831 65.2495 49.099 64.7804 48.2867C63.6483 46.3262 63.7224 43.5765 64.1715 41.4322C64.5697 39.5305 65.6579 37.2996 67.4616 36.3152C69.2278 35.3513 71.0842 34.7256 73.1272 35.0695C74.8216 35.3545 76.7139 36.025 77.7623 37.4539C78.8744 38.9696 78.6662 41.0451 78.1823 42.7243C76.448 48.7426 72.3097 46.2025 72.3097 46.2025C69.7871 45.3034 70.5753 42.2163 70.5753 42.2163C72.349 39.5587 75.3839 40.106 75.3839 40.106C75.6375 38.9287 74.5466 38.2448 73.5747 37.9234C72.9818 37.7275 72.2865 37.5934 71.6567 37.6312C70.3706 37.7082 68.9848 38.1748 68.2007 39.246C66.0132 42.2358 67.4616 46.0462 67.4616 46.0462C69.4719 50.9408 76.0934 49.7392 76.0934 49.7392C76.9484 49.5556 77.7935 49.3226 78.616 49.0265C83.1197 47.4044 86.0425 43.5329 85.7891 38.6891C85.3753 30.7755 77.7782 29.0464 77.7782 29.0464C72.6642 28.1377 69.4719 29.8964 69.4719 29.8964C63.5597 31.9187 61.5496 37.5462 61.2835 37.7514C59.2144 41.6497 59.8055 47.3357 59.8055 47.3357C60.8696 53.7252 67.2252 56.07 67.2252 56.07C73.3738 59.4699 81.237 56.7735 81.237 56.7735C88.2721 55.1321 93.7705 50.5404 96.5492 47.1794C99.3279 43.8186 99.4658 40.8681 99.4658 40.8681C99.722 39.9887 99.8402 34.7129 99.8204 34.6543C99.8009 34.5956 99.8204 29.7107 99.8204 29.7107C98.6381 27.9521 100.215 27.5223 100.215 27.5223C101.141 27.2682 101.732 27.9716 101.732 27.9716C102.165 28.128 102.454 28.5398 102.669 28.9221C103.472 30.3485 103.716 32.1488 103.888 33.7522C104.219 36.8311 104.001 39.9401 103.954 43.0272L104.131 43.159C104.9 42.7927 105.403 42.9979 105.403 42.9979C106.131 42.8245 106.578 42.4297 107.146 42.0013C107.624 41.6413 108.138 41.2642 108.594 40.9156C109.501 40.2221 110.383 39.4967 111.244 38.7485C112.658 37.5203 113.966 35.7209 115.774 35.0609C116.101 34.9416 116.868 34.7136 117.194 34.9963C118.712 36.3152 117.458 37.7416 117.458 37.7416C114.64 41.7083 109.477 44.0138 109.477 44.0138ZM96.0467 70.4766C96.0467 70.4766 114.581 70.8445 119.045 73.6964C92.4402 73.0116 61.0667 75.5058 40 76.5483C58.8596 69.5156 96.0467 70.4766 96.0467 70.4766Z" fill="#FF681D"/>
<path d="M137.111 68.6797L137.073 53.6165C137.073 52.3488 137.39 51.3732 138.024 50.6896C138.733 49.9191 139.764 49.54 141.119 49.5524H144.941L145.015 47.4645L140.821 47.4458C139.789 47.4458 138.969 47.1537 138.36 46.5696C137.801 46.0352 137.521 45.2833 137.521 44.3139V40.6786C137.521 39.6346 137.813 38.8267 138.397 38.255C139.031 37.6336 139.87 37.3229 140.914 37.3229H151.652C153.181 37.3229 154.256 37.5652 154.877 38.05C155.635 38.6217 156.021 39.5476 156.033 40.8277L156.052 44.3698C156.076 46.408 154.883 47.4334 152.472 47.4458L148.688 47.4645V49.5524H151.745C154.815 49.5276 156.35 50.7642 156.35 53.2623V64.1868C156.35 65.815 156.052 66.9459 155.455 67.5798C154.809 68.2882 153.771 68.6424 152.342 68.6424L148.576 68.6797V65.2122H151.279C151.95 65.2122 152.385 65.1065 152.584 64.8953C152.758 64.7088 152.845 64.3857 152.845 63.9258L152.864 54.8656C152.864 54.0826 152.746 53.573 152.51 53.3369C152.323 53.138 151.882 53.0386 151.186 53.0386H148.874C149.21 54.2441 149.576 55.1763 149.974 55.835C150.459 56.6304 151.161 57.2953 152.081 57.8297V62.2294C150.154 61.2972 148.39 59.8431 146.786 57.867C145.469 59.52 143.685 60.9927 141.436 62.2853V57.9602C142.505 57.2145 143.3 56.3942 143.822 55.4994C144.096 55.0023 144.363 54.1882 144.624 53.0572H141.958C141.486 53.0572 141.15 53.1567 140.951 53.3555C140.765 53.5295 140.672 53.9645 140.672 54.6605V68.6797H137.111ZM142.107 44.1834H151.428C151.95 44.1834 152.317 44.0901 152.528 43.9037C152.715 43.7173 152.808 43.3755 152.808 42.8784V42.0208C152.808 41.648 152.733 41.387 152.584 41.2378C152.398 41.0638 152.043 40.9768 151.521 40.9768H141.883C141.075 40.9768 140.696 41.4056 140.746 42.2632L140.765 42.8784C140.79 43.3879 140.864 43.7173 140.988 43.8664C141.175 44.0777 141.548 44.1834 142.107 44.1834ZM121.898 68.6611V65.2122H127.398V59.6381H125.72C124.626 59.6381 123.75 59.3273 123.092 58.7059C122.483 58.1218 122.178 57.3512 122.178 56.3942V43.3444C122.178 41.9773 122.7 40.983 123.744 40.3616C124.204 40.0882 124.863 39.9577 125.72 39.9701L127.398 39.9888V36.95H130.847V39.9888L132.45 39.9701C134.849 39.9453 136.048 41.126 136.048 43.5122L136.067 56.0028C136.067 57.1213 135.793 57.9913 135.247 58.6127C134.638 59.3211 133.792 59.6691 132.711 59.6567L130.847 59.6381V65.2122C132.326 65.0382 133.047 64.1371 133.009 62.509L132.991 61.6515H136.458V63.2547C136.458 65.1065 135.93 66.5109 134.874 67.4679C134.277 68.0148 133.544 68.369 132.674 68.5306C132.202 68.6176 131.462 68.6611 130.455 68.6611H121.898ZM127.398 56.1705V43.4563H126.876C126.404 43.4687 126.087 43.5433 125.925 43.68C125.726 43.8416 125.627 44.1834 125.627 44.7054V54.9774C125.627 55.748 125.994 56.1457 126.727 56.1705H127.398ZM130.847 56.1705H131.462C131.897 56.1581 132.202 56.0587 132.376 55.8723C132.525 55.7231 132.599 55.4248 132.599 54.9774V44.7986C132.599 44.1026 132.475 43.6862 132.226 43.5495C132.09 43.4749 131.841 43.4439 131.481 43.4563H130.847V56.1705Z" fill="#333147"/>
<path d="M159.911 49.9439V46.495C161.265 46.2216 162.334 45.7493 163.117 45.0782C164.024 44.2952 164.702 43.0586 165.149 41.3683L166.305 36.9873L169.903 36.9687L168.803 41.0514H175.645V37.0805H179.094V41.0514H193.71V44.5003H179.094V54.9588H194.53V58.3331H179.094V68.7356H175.645V58.3517H160.023V54.9588H175.645V44.5003H167.759C167.013 45.7928 166.336 46.7498 165.727 47.3712C164.236 48.8502 162.297 49.7078 159.911 49.9439Z" fill="#333147"/>
<path d="M198.221 59.694V56.2451L216.994 56.2637L222.512 52.703C223.047 52.355 223.314 51.9946 223.314 51.6217C223.314 51.4726 223.246 51.3545 223.109 51.2675C222.935 51.1433 222.475 51.0811 221.729 51.0811H200.663L200.682 47.5763H223.277C224.855 47.5763 226.067 47.8808 226.912 48.4898C227.794 49.1236 228.236 49.9563 228.236 50.9879C228.236 52.2556 227.509 53.3679 226.055 54.3249L223.165 56.2451H232.784V59.694L221.413 59.7126V63.0496C221.413 64.6156 220.965 65.9082 220.07 66.9273C219.039 68.108 217.665 68.6983 215.95 68.6983H209.052L209.034 65.1935L215.074 65.2122C215.919 65.2122 216.528 65.0195 216.901 64.6343C217.311 64.2117 217.516 63.6835 217.516 63.0496V59.694H198.221ZM198.277 46.6442L198.258 44.6121C198.246 42.2507 199.495 40.6351 202.006 39.7651L202.024 36.9314H205.473V39.6905H213.825V36.9687L217.293 36.9314V39.6905H225.775V36.9314H229.224L229.205 39.821C230.821 40.3803 231.89 41.2565 232.412 42.4496C232.722 43.1332 232.871 43.9969 232.859 45.0409L232.84 46.6442H229.41V45.1341C229.41 43.7919 228.546 43.1207 226.819 43.1207H204.056C202.552 43.1207 201.794 43.7919 201.782 45.1341L201.763 46.6442H198.277Z" fill="#333147"/>
<path d="M236.494 55.1452V51.6963C237.402 51.1743 238.06 50.4659 238.47 49.5711C238.744 48.9869 239.017 47.8932 239.291 46.29H242.889L242.628 47.6322H248.649C250.688 47.6322 251.999 47.9305 252.583 48.5271C253.217 49.1485 253.534 50.2733 253.534 51.9014C253.534 57.0094 251.912 60.856 248.668 63.4411C246.021 65.554 241.963 67.3064 236.494 68.6983V64.858C239.03 64.1993 241.136 63.5095 242.814 62.7886C244.492 62.0802 245.903 61.1854 247.046 60.1041H238.135V56.6552H249.302C249.861 54.9028 250.141 53.3866 250.141 52.1065C250.141 51.3483 249.824 50.9693 249.19 50.9693H241.491C240.819 52.1872 240.105 53.1069 239.347 53.7284C238.626 54.3001 237.675 54.7723 236.494 55.1452ZM236.494 42.2445V38.6838H241.64V36.9314H245.089V38.6838H262.221V36.9314H265.689V38.6838H270.89V42.2445H265.689V44.9663H262.221V42.2445H245.089V44.9663H241.64V42.2445H236.494ZM262.426 60.5702V57.084H265.241C266.074 57.084 266.49 56.6055 266.49 55.6485V52.5352C266.49 51.9387 266.372 51.5161 266.136 51.2675C265.937 51.0563 265.558 50.9506 264.999 50.9506H260.245C259.723 50.9506 259.406 50.9755 259.294 51.0252C258.884 51.224 258.679 51.6839 258.679 52.4047V63.6648C258.679 64.2738 258.766 64.6529 258.94 64.802C259.226 65.063 259.661 65.1935 260.245 65.1935H270.909V68.6983H259.276C257.821 68.6983 256.777 68.3752 256.144 67.7289C255.535 67.1324 255.23 66.1816 255.23 64.8766V51.2489C255.23 49.9563 255.541 48.9994 256.162 48.3779C256.796 47.7565 257.554 47.4458 258.437 47.4458H265.95C267.155 47.4458 267.988 47.5949 268.448 47.8932C268.92 48.2164 269.299 48.6389 269.585 49.1609C269.821 49.6083 269.939 50.0185 269.939 50.3913V57.606C269.939 58.3144 269.641 58.9793 269.044 59.6008C268.423 60.247 267.391 60.5702 265.95 60.5702H262.426Z" fill="#333147"/>
<path d="M981.982 47.7744H985.92C986.02 47.2549 986.102 46.7627 986.166 46.2979H980.383V45.3408H984.553C984.179 44.7575 983.814 44.2516 983.459 43.8232L984.293 43.2627C984.885 43.9007 985.337 44.443 985.646 44.8896L985.024 45.3408H988.251C988.661 44.7393 989.096 44.0511 989.557 43.2764L990.623 43.8643C990.249 44.3564 989.862 44.8486 989.461 45.3408H993.672V46.2979H987.314C987.205 46.7673 987.087 47.2594 986.959 47.7744H992.113V56.8252H991.074V56.0049H983.021V56.8252H981.982V47.7744ZM983.021 55.0752H991.074V53.5439H983.021V55.0752ZM991.074 48.7041H983.021V50.2217H991.074V48.7041ZM983.021 52.6416H991.074V51.124H983.021V52.6416ZM996.023 46.8994H999.906C1000.02 46.4255 1000.16 45.8148 1000.32 45.0674H994.479V44.0557H1007.58V45.0674H1001.53C1001.34 45.7783 1001.16 46.389 1000.99 46.8994H1006.14V53.4072H1005.03V47.9111H997.131V53.4619H996.023V46.8994ZM994.219 55.8818C996.543 55.3714 998.143 54.7425 999.018 53.9951C1000.02 53.1748 1000.52 51.9079 1000.52 50.1943V48.6631H1001.63V50.249C1001.63 51.1696 1001.51 51.9854 1001.27 52.6963C1003.57 53.6989 1005.66 54.7334 1007.55 55.7998L1006.85 56.8252C1005.1 55.7497 1003.11 54.6833 1000.86 53.626C1000.54 54.182 1000.13 54.6514 999.619 55.0342C998.553 55.8454 996.99 56.488 994.93 56.9619C994.766 56.6611 994.529 56.3011 994.219 55.8818Z" fill="#333147"/>
<path d="M1052.55 45.04H1056.57C1056.79 44.4886 1056.99 43.9235 1057.17 43.3447L1058.3 43.6318C1058.14 44.1104 1057.97 44.5798 1057.79 45.04H1065.73V46.0518H1057.36C1056.82 47.2686 1056.18 48.4147 1055.46 49.4902V56.7295H1054.39V50.9463C1053.9 51.5615 1053.38 52.1494 1052.82 52.71C1052.63 52.391 1052.41 52.0628 1052.16 51.7256C1053.84 49.9847 1055.16 48.0934 1056.12 46.0518H1052.55V45.04ZM1055.94 54.7607H1060.22V50.6729H1056.66V49.6885H1060.22V46.9404H1061.34V49.6885H1064.95V50.6729H1061.34V54.7607H1065.73V55.7178H1055.94V54.7607ZM1070.31 55.7588C1072.02 55.1436 1073.5 54.4303 1074.76 53.6191C1074.43 52.7943 1074.18 51.8167 1073.99 50.6865L1071.07 51.0967L1070.91 50.1123L1073.85 49.7021C1073.78 49.0641 1073.72 48.3828 1073.68 47.6582L1071.21 47.9385L1071.04 46.9541L1073.63 46.667C1073.58 45.7191 1073.53 44.6299 1073.49 43.3994H1074.61C1074.64 44.5752 1074.67 45.6234 1074.7 46.5439L1079.28 46.0244L1079.4 46.9951L1074.74 47.5352C1074.78 48.2552 1074.83 48.9297 1074.9 49.5586L1079.62 48.8955L1079.74 49.8662L1075.03 50.5361C1075.19 51.4795 1075.39 52.2998 1075.66 52.9971C1076.63 52.2679 1077.43 51.4704 1078.07 50.6045L1078.96 51.2744C1078.14 52.2633 1077.19 53.1589 1076.1 53.9609C1076.45 54.5898 1076.87 55.0706 1077.36 55.4033C1077.96 55.7588 1078.35 55.5765 1078.52 54.8564C1078.64 54.2731 1078.74 53.626 1078.81 52.915C1079.23 53.0973 1079.58 53.2295 1079.86 53.3115C1079.71 54.2959 1079.55 55.0387 1079.4 55.54C1079.13 56.3148 1078.68 56.7021 1078.04 56.7021C1077.38 56.7021 1076.76 56.4287 1076.2 55.8818C1075.83 55.5309 1075.5 55.0957 1075.21 54.5762C1073.95 55.3874 1072.55 56.0915 1070.99 56.6885C1070.83 56.4333 1070.6 56.1234 1070.31 55.7588ZM1067.97 51.6299C1068.78 51.5114 1069.74 51.3564 1070.84 51.165C1070.79 51.5023 1070.74 51.8532 1070.72 52.2178C1069.19 52.4548 1067.86 52.6689 1066.71 52.8604L1066.49 51.835C1067.13 51.1559 1067.82 50.1875 1068.58 48.9297C1067.84 48.9707 1067.14 49.0231 1066.49 49.0869L1066.23 48.1572C1067.08 46.9997 1067.95 45.3773 1068.84 43.29L1069.88 43.7002C1068.94 45.5505 1068.14 47.0088 1067.46 48.0752C1068.01 48.057 1068.55 48.0365 1069.11 48.0137C1069.42 47.4531 1069.75 46.8447 1070.09 46.1885L1071.1 46.6943C1069.99 48.6175 1068.94 50.2627 1067.97 51.6299ZM1066.23 54.7881C1067.84 54.4417 1069.46 54.0635 1071.1 53.6533C1071.07 54.0179 1071.06 54.3643 1071.06 54.6924C1069.54 55.0479 1068.03 55.4261 1066.53 55.8271L1066.23 54.7881ZM1075.76 44.124L1076.35 43.4404C1077 43.8506 1077.69 44.3428 1078.43 44.917L1077.77 45.71C1077.01 45.0628 1076.35 44.5342 1075.76 44.124ZM1093.84 55.0068C1093.61 55.3532 1093.38 55.695 1093.17 56.0322C1091.51 55.1709 1090.18 53.945 1089.16 52.3545V56.7842H1088.18V52.3955C1087.03 54.0179 1085.75 55.2939 1084.32 56.2236C1084.06 55.8864 1083.79 55.5856 1083.53 55.3213C1085.21 54.4235 1086.59 53.2887 1087.68 51.917H1083.98V51.0146H1088.18V49.5244H1085.63V49.9619H1084.68V43.9463H1092.66V49.9619H1091.7V49.5244H1089.16V51.0146H1093.45V51.917H1089.65C1090.78 53.3525 1092.17 54.3825 1093.84 55.0068ZM1084.57 53.3662C1083.88 53.9678 1083.29 54.5146 1082.79 55.0068C1082.53 55.2712 1082.31 55.5264 1082.11 55.7725L1081.34 54.8838C1081.62 54.6195 1081.76 54.2275 1081.76 53.708V48.9229H1080.25V47.9248H1082.78V53.6123C1083.23 53.2113 1083.74 52.7373 1084.31 52.1904C1084.38 52.5824 1084.47 52.9743 1084.57 53.3662ZM1091.7 44.8213H1089.16V46.3115H1091.7V44.8213ZM1089.16 48.6494H1091.7V47.1592H1089.16V48.6494ZM1085.63 46.3115H1088.18V44.8213H1085.63V46.3115ZM1085.63 48.6494H1088.18V47.1592H1085.63V48.6494ZM1081.75 43.6729C1082.57 44.4658 1083.24 45.1904 1083.77 45.8467L1082.93 46.5439C1082.29 45.7236 1081.65 44.9808 1081.03 44.3154L1081.75 43.6729ZM1094.3 55.1572H1100.51V53.6533H1095.54V52.71H1100.51V51.3291H1097.72V51.917H1096.76V47.8564H1105.24V51.917H1104.28V51.3291H1101.52V52.71H1106.5V53.6533H1101.52V55.1572H1107.69V56.1006H1094.3V55.1572ZM1094.79 45.9287H1100.48V43.3857H1101.52V45.9287H1107.23V49.21H1106.22V46.8721H1095.8V49.21H1094.79V45.9287ZM1104.28 48.7861H1097.72V50.3994H1104.28V48.7861ZM1103.27 45.0947C1104.02 44.6025 1104.73 44.0785 1105.4 43.5225L1106.2 44.3291C1105.48 44.8577 1104.73 45.3864 1103.93 45.915L1103.27 45.0947ZM1096.09 44.2744L1096.72 43.5635C1097.42 44.0283 1098.11 44.5068 1098.79 44.999L1098.03 45.8057C1097.42 45.277 1096.78 44.7666 1096.09 44.2744Z" fill="#616175"/>
<path d="M1152.81 55.2256H1154.65V49.9209H1155.79V55.2256H1158.62V47.583H1159.75V50.6045H1163.92V51.6025H1159.75V55.2256H1165.22V56.2373H1152.81V55.2256ZM1160.04 43.4951L1159.77 43.8643C1161.19 45.7419 1163.21 47.2002 1165.82 48.2393C1165.62 48.5309 1165.37 48.9229 1165.07 49.415C1162.58 48.1663 1160.58 46.5986 1159.05 44.7119C1157.62 46.5622 1155.56 48.2393 1152.86 49.7432C1152.62 49.3968 1152.36 49.0231 1152.07 48.6221C1154.85 47.3551 1157.01 45.6462 1158.56 43.4951H1160.04ZM1166.26 54.8975H1170.65V43.6045H1171.8V54.8975H1174.19V43.6045H1175.34V54.8975H1179.77V55.9092H1166.26V54.8975ZM1167.85 46.2842C1168.59 48.0433 1169.32 49.9118 1170.02 51.8896L1168.9 52.3955C1168.29 50.4723 1167.6 48.5811 1166.85 46.7217L1167.85 46.2842ZM1175.83 52.0127C1176.74 50.0804 1177.51 48.2119 1178.13 46.4072L1179.23 46.8447C1178.39 49.0231 1177.58 50.8962 1176.81 52.4639L1175.83 52.0127ZM1181.39 45.8467H1186.44V43.4951H1187.56V45.8467H1192.58V54.8701C1192.58 56.0277 1192.01 56.6019 1190.87 56.5928C1190.27 56.5928 1189.53 56.5837 1188.65 56.5654C1188.63 56.2555 1188.56 55.859 1188.45 55.376C1189.32 55.4489 1190.04 55.4899 1190.61 55.499C1191.18 55.5173 1191.47 55.2301 1191.47 54.6377V46.8857H1187.53C1187.5 47.7152 1187.4 48.4535 1187.23 49.1006C1188.85 50.3949 1190.15 51.5342 1191.14 52.5186L1190.31 53.4072C1189.33 52.3408 1188.2 51.2334 1186.9 50.085C1186.28 51.4248 1185.1 52.5915 1183.36 53.585C1182.98 53.0563 1182.73 52.7282 1182.6 52.6006C1184.08 51.8167 1185.1 50.9463 1185.65 49.9893C1186.08 49.2874 1186.34 48.2529 1186.41 46.8857H1182.5V56.7158H1181.39V45.8467ZM1199.65 43.6729H1200.69V49.0459C1200.69 51.1605 1200.52 52.8057 1200.19 53.9814C1199.87 55.0934 1199.25 56.0687 1198.33 56.9072C1198.02 56.6247 1197.71 56.3786 1197.39 56.1689C1198.27 55.4854 1198.88 54.624 1199.2 53.585C1199.5 52.555 1199.65 51.0739 1199.65 49.1416V43.6729ZM1206.04 43.6592H1207.08V56.6885H1206.04V43.6592ZM1202.83 44.165H1203.87V55.8818H1202.83V44.165ZM1198.43 51.999C1198.43 52.4548 1198.46 52.8831 1198.53 53.2842C1197.6 54.068 1196.76 54.8473 1196 55.6221L1195.37 54.7471C1195.68 54.4554 1195.83 54.0361 1195.83 53.4893V48.8682H1194.18V47.8838H1196.87V53.4482C1197.36 53.0107 1197.88 52.5277 1198.43 51.999ZM1195.91 43.6455C1196.73 44.4658 1197.45 45.2132 1198.05 45.8877L1197.09 46.6943C1196.53 45.9561 1195.87 45.1722 1195.09 44.3428L1195.91 43.6455Z" fill="#616175"/>
<path d="M1258.9 54.8223H1257.89V46.9473H1260.96V44.9375H1257.39V43.9941H1265.75V44.9375H1261.99V46.9473H1265.1V53.0996C1265.1 54.1113 1264.63 54.6172 1263.68 54.6172C1263.33 54.6172 1262.9 54.6035 1262.41 54.5762C1262.37 54.2298 1262.3 53.8789 1262.21 53.5234C1262.72 53.5872 1263.09 53.6191 1263.33 53.6191C1263.84 53.6191 1264.09 53.4049 1264.09 52.9766V47.8906H1261.99V56.8184H1260.96V47.8906H1258.9V54.8223ZM1255.47 43.4062H1256.49V50.1055C1256.49 53.0768 1255.72 55.3418 1254.18 56.9004C1253.86 56.5905 1253.57 56.349 1253.29 56.1758C1254.73 54.7721 1255.46 52.7396 1255.47 50.0781V43.4062ZM1252.91 44.3906H1253.92V53.3594H1252.91V44.3906ZM1270.01 49.0596C1272.74 48.3577 1274.22 47.1729 1274.45 45.5049H1272.26C1271.93 46.1794 1271.57 46.7855 1271.17 47.3232C1270.88 47.1227 1270.57 46.9268 1270.25 46.7354C1271.11 45.7236 1271.71 44.5524 1272.07 43.2217L1273.1 43.4678C1272.96 43.8688 1272.82 44.2471 1272.67 44.6025H1279.15V45.4639L1278.22 47.3232C1277.91 47.1774 1277.58 47.0361 1277.22 46.8994L1277.95 45.5049H1275.52C1275.44 45.7965 1275.36 46.0791 1275.27 46.3525C1276.05 47.6468 1277.53 48.5446 1279.69 49.0459C1279.43 49.3923 1279.2 49.7249 1279 50.0439C1277.06 49.4242 1275.68 48.5127 1274.85 47.3096C1274.22 48.4033 1272.84 49.2874 1270.7 49.9619C1270.52 49.6885 1270.29 49.3877 1270.01 49.0596ZM1268.24 50.0166H1277.74V54.4736H1276.68V50.9736H1269.31V54.4736H1268.24V50.0166ZM1269.81 46.4209C1269.98 46.7764 1270.16 47.0999 1270.35 47.3916C1269.26 48.2028 1268.13 49.0824 1266.96 50.0303L1266.25 49.1006C1267.53 48.2165 1268.72 47.3232 1269.81 46.4209ZM1267.38 43.4541C1268.16 43.9463 1268.93 44.4567 1269.66 44.9854L1268.97 45.833C1268.31 45.3135 1267.58 44.7712 1266.78 44.2061L1267.38 43.4541ZM1273.53 51.4932C1273.52 52.4775 1273.46 53.234 1273.33 53.7627C1275.41 54.4372 1277.39 55.139 1279.28 55.8682L1278.7 56.8662C1276.98 56.1553 1275.06 55.4215 1272.95 54.665C1272.33 55.7497 1270.39 56.5016 1267.11 56.9209C1266.94 56.5745 1266.75 56.2191 1266.52 55.8545C1269.54 55.5902 1271.36 55.0251 1271.99 54.1592C1272.33 53.7035 1272.49 52.8148 1272.47 51.4932H1273.53ZM1287.98 43.5498L1287.7 43.9463C1289.23 46.3252 1291.27 48.0251 1293.82 49.0459C1293.53 49.4743 1293.28 49.8708 1293.08 50.2354C1290.4 48.8317 1288.38 47.027 1287.01 44.8213C1285.65 46.9359 1283.6 48.8089 1280.86 50.4404C1280.63 50.0029 1280.39 49.6064 1280.12 49.251C1282.85 47.9385 1284.98 46.0381 1286.51 43.5498H1287.98ZM1283.83 48.8955H1284.92C1284.92 51.8851 1284.69 53.8037 1284.24 54.6514C1283.87 55.4352 1283.1 56.2373 1281.91 57.0576C1281.68 56.7477 1281.41 56.4424 1281.12 56.1416C1282.21 55.4489 1282.93 54.7607 1283.25 54.0771C1283.64 53.3753 1283.83 51.6481 1283.83 48.8955ZM1288.87 48.8682H1289.98V56.8115H1288.87V48.8682ZM1299.92 50.9189H1306.84V56.7158H1305.77V55.9502H1300.99V56.7158H1299.92V50.9189ZM1299.63 44.9033V43.9736H1307.03C1306.97 45.9788 1306.9 47.3597 1306.84 48.1162C1306.73 49.2829 1306.15 49.8662 1305.1 49.8662C1304.63 49.8753 1304.06 49.8617 1303.41 49.8252C1303.35 49.3968 1303.28 49.0186 1303.2 48.6904C1303.78 48.7907 1304.33 48.8408 1304.87 48.8408C1305.43 48.8408 1305.73 48.5446 1305.79 47.9521C1305.87 47.305 1305.92 46.2887 1305.94 44.9033H1303C1302.95 47.3779 1301.79 49.1781 1299.52 50.3037C1299.35 50.0212 1299.13 49.7295 1298.85 49.4287C1300.82 48.5446 1301.86 47.0361 1301.98 44.9033H1299.63ZM1296.04 51.4111C1296.92 51.3018 1297.86 51.1787 1298.87 51.042C1298.84 51.443 1298.83 51.8031 1298.83 52.1221C1297 52.3044 1295.7 52.4821 1294.9 52.6553L1294.7 51.5889C1295.34 50.7275 1296 49.7546 1296.67 48.6699C1295.6 48.7155 1294.87 48.777 1294.49 48.8545L1294.3 47.8154C1294.88 47.1318 1295.66 45.6781 1296.64 43.4541L1297.71 43.7822C1297.05 45.1585 1296.3 46.4893 1295.46 47.7744C1295.83 47.7653 1296.42 47.7493 1297.24 47.7266C1297.58 47.1432 1297.93 46.5303 1298.28 45.8877L1299.26 46.3252C1298.11 48.3304 1297.03 50.0257 1296.04 51.4111ZM1305.77 51.876H1300.99V54.9932H1305.77V51.876ZM1294.4 54.624C1295.89 54.4053 1297.41 54.141 1298.95 53.8311C1298.92 54.0316 1298.91 54.3688 1298.91 54.8428C1297.31 55.098 1295.9 55.3942 1294.66 55.7314L1294.4 54.624Z" fill="#616175"/>
<path d="M1358.99 47.2686H1360.42C1360.43 46.5439 1360.44 45.2497 1360.46 43.3857H1361.46C1361.44 45.1084 1361.42 46.4027 1361.4 47.2686H1365.4V48.2666H1362.96V54.8154C1362.96 55.2438 1363.13 55.458 1363.47 55.458H1363.92C1364.31 55.458 1364.55 55.1891 1364.62 54.6514C1364.71 54.1045 1364.77 53.4072 1364.8 52.5596C1365.44 52.8148 1365.79 52.9515 1365.82 52.9697C1365.74 53.7809 1365.66 54.4508 1365.59 54.9795C1365.45 55.9548 1364.94 56.4424 1364.06 56.4424H1363.14C1362.36 56.4424 1361.97 55.9639 1361.97 55.0068V48.2666H1361.36C1361.3 51.876 1360.27 54.7562 1358.26 56.9072C1358.02 56.652 1357.76 56.3877 1357.48 56.1143C1359.37 54.109 1360.33 51.4932 1360.37 48.2666H1358.99V47.2686ZM1353.2 47.3506H1358.62V51.4658H1357.66V51.1377H1356.39V55.1846C1356.39 56.1143 1355.92 56.5791 1354.99 56.5791C1354.58 56.5791 1354.18 56.57 1353.79 56.5518C1353.75 56.1963 1353.68 55.8454 1353.57 55.499C1353.98 55.5628 1354.4 55.5947 1354.83 55.5947C1355.23 55.5947 1355.43 55.3896 1355.43 54.9795V51.1377H1354.16V51.4658H1353.2V47.3506ZM1352.38 45.2041H1355.76C1355.52 44.721 1355.24 44.2197 1354.9 43.7002L1355.81 43.2627C1356.15 43.764 1356.45 44.2699 1356.7 44.7803L1355.83 45.2041H1359.38V46.1338H1352.38V45.2041ZM1357.66 48.2529H1354.16V50.2354H1357.66V48.2529ZM1353.78 51.9443L1354.67 52.2998C1354.22 53.4482 1353.71 54.4691 1353.13 55.3623C1352.91 55.1982 1352.62 55.0387 1352.26 54.8838C1352.85 53.9906 1353.36 53.0107 1353.78 51.9443ZM1362.2 44.7666L1362.84 44.0557C1363.56 44.5661 1364.26 45.0993 1364.93 45.6553L1364.22 46.4482C1363.8 46.0472 1363.13 45.4867 1362.2 44.7666ZM1356.83 52.2451L1357.61 51.7529C1358.12 52.4274 1358.56 53.0472 1358.9 53.6123L1358.06 54.1865C1357.72 53.5667 1357.31 52.9196 1356.83 52.2451ZM1366.26 54.8975H1370.65V43.6045H1371.8V54.8975H1374.19V43.6045H1375.34V54.8975H1379.77V55.9092H1366.26V54.8975ZM1367.85 46.2842C1368.59 48.0433 1369.32 49.9118 1370.02 51.8896L1368.9 52.3955C1368.29 50.4723 1367.6 48.5811 1366.85 46.7217L1367.85 46.2842ZM1375.83 52.0127C1376.74 50.0804 1377.51 48.2119 1378.13 46.4072L1379.23 46.8447C1378.39 49.0231 1377.58 50.8962 1376.81 52.4639L1375.83 52.0127ZM1385.03 51.8623H1392.81V56.8662H1391.76V56.0459H1386.08V56.8662H1385.03V51.8623ZM1380.18 49.9619C1381.52 47.9749 1382.52 45.7783 1383.2 43.3721L1384.27 43.6729C1383.87 44.8988 1383.44 46.029 1382.97 47.0635V56.8662H1381.96V49.0664C1381.54 49.8001 1381.09 50.4723 1380.63 51.083C1380.48 50.7002 1380.33 50.3265 1380.18 49.9619ZM1391.76 52.792H1386.08V55.1162H1391.76V52.792ZM1384.13 45.2178H1388.59C1388.32 44.7484 1388.03 44.2835 1387.74 43.8232L1388.65 43.3447C1388.98 43.8369 1389.31 44.3564 1389.62 44.9033L1389.03 45.2178H1393.75V46.1748H1384.13V45.2178ZM1384.88 47.4463H1392.95V48.376H1384.88V47.4463ZM1384.88 49.6475H1392.95V50.5771H1384.88V49.6475ZM1396 44.6982H1399.34C1399.53 44.2106 1399.7 43.7412 1399.82 43.29L1400.89 43.5771C1400.74 43.9645 1400.58 44.3382 1400.42 44.6982H1405.87V52.1631H1404.81V51.7393H1397.05V52.1631H1396V44.6982ZM1397.43 52.6826H1398.47V54.6924C1398.47 55.2575 1398.77 55.54 1399.37 55.54H1402.41C1403.14 55.54 1403.56 55.2894 1403.68 54.7881C1403.77 54.46 1403.86 53.9632 1403.95 53.2979C1404.29 53.4346 1404.65 53.5667 1405.02 53.6943C1404.91 54.3232 1404.8 54.8291 1404.69 55.2119C1404.48 56.0778 1403.8 56.5107 1402.65 56.5107H1399.21C1398.02 56.5107 1397.43 55.9456 1397.43 54.8154V52.6826ZM1397.05 48.7861H1404.81V47.6377H1397.05V48.7861ZM1397.05 50.8096H1404.81V49.6611H1397.05V50.8096ZM1404.81 45.6279H1397.05V46.7627H1404.81V45.6279ZM1395.39 52.5459L1396.39 52.8877C1395.99 53.9814 1395.57 54.9795 1395.13 55.8818C1394.84 55.7542 1394.51 55.6221 1394.12 55.4854C1394.57 54.6924 1394.99 53.7126 1395.39 52.5459ZM1405.2 52.9834L1405.99 52.3682C1406.64 53.07 1407.3 53.8402 1407.97 54.6787L1407.1 55.3486C1406.48 54.5101 1405.84 53.7217 1405.2 52.9834ZM1399.82 52.5322L1400.56 51.9033C1401.12 52.4137 1401.73 53.0244 1402.39 53.7354L1401.56 54.4463C1400.89 53.6533 1400.31 53.0153 1399.82 52.5322Z" fill="#616175"/>
<path d="M1452.31 52.0264H1458.71V51.2607L1461.32 49.7842H1454.9V48.7861H1462.92V49.9346L1459.82 51.7256V52.0264H1465.7V53.0244H1459.82V55.0889C1459.82 56.1644 1459.28 56.7021 1458.19 56.7021C1457.59 56.7021 1456.89 56.693 1456.07 56.6748C1456.05 56.3649 1455.99 55.9775 1455.91 55.5127C1456.64 55.5856 1457.34 55.6266 1458 55.6357C1458.48 55.6449 1458.71 55.3942 1458.71 54.8838V53.0244H1452.31V52.0264ZM1452.78 46.4482H1465.25V49.21H1464.17V47.4463H1453.86V49.21H1452.78V46.4482ZM1461.43 45.6553C1462.04 44.999 1462.62 44.2926 1463.16 43.5361L1464.14 44.2607C1463.55 44.9352 1462.91 45.6416 1462.24 46.3799L1461.43 45.6553ZM1457.55 43.8096L1458.44 43.29C1459 44.0192 1459.51 44.762 1459.98 45.5186L1459 46.0791C1458.6 45.3682 1458.12 44.6117 1457.55 43.8096ZM1453.86 44.2197L1454.67 43.6318C1455.22 44.2425 1455.77 44.9033 1456.31 45.6143L1455.38 46.2705C1454.87 45.4958 1454.36 44.8122 1453.86 44.2197ZM1468.41 43.9736H1477.59V48.2256H1476.5V47.7197H1469.5V48.2256H1468.41V43.9736ZM1472.37 50.3721H1473.48C1473.49 50.8643 1473.47 51.3975 1473.44 51.9717C1473.41 52.3818 1473.36 52.7601 1473.27 53.1064C1475.24 53.8812 1477.39 54.8109 1479.73 55.8955L1479.11 56.9209C1477.33 56.0003 1475.27 55.0433 1472.92 54.0498C1472.75 54.3779 1472.54 54.665 1472.29 54.9111C1471.23 55.8955 1469.45 56.5882 1466.93 56.9893C1466.77 56.6064 1466.57 56.2601 1466.33 55.9502C1468.89 55.5583 1470.58 54.9521 1471.41 54.1318C1471.97 53.6214 1472.28 52.8695 1472.33 51.876C1472.37 51.3656 1472.38 50.8643 1472.37 50.3721ZM1467.65 49.0049H1478.36V53.9951H1477.27V49.9619H1468.75V54.0771H1467.65V49.0049ZM1476.5 46.7627V44.9307H1469.5V46.7627H1476.5ZM1482.64 45.2314V49.0732C1482.64 51.1331 1482.53 52.6917 1482.31 53.749C1482.08 54.8428 1481.64 55.8818 1480.98 56.8662C1480.62 56.4378 1480.35 56.1234 1480.16 55.9229C1480.67 55.1025 1481.03 54.2002 1481.24 53.2158C1481.44 52.2952 1481.53 50.9326 1481.53 49.1279V44.2197H1491.65V51.6846C1491.65 53.3252 1491.75 54.4691 1491.96 55.1162C1492.05 55.3258 1492.17 55.4307 1492.3 55.4307C1492.45 55.4307 1492.55 55.2712 1492.59 54.9521C1492.66 54.4691 1492.73 53.6989 1492.78 52.6416C1493.2 52.8057 1493.55 52.9287 1493.82 53.0107C1493.73 53.9678 1493.64 54.738 1493.54 55.3213C1493.37 56.2236 1492.95 56.6748 1492.26 56.6748C1491.75 56.6748 1491.33 56.333 1490.99 55.6494C1490.69 55.0205 1490.54 53.708 1490.54 51.7119V45.2314H1482.64ZM1483.49 46.8311L1484.33 46.2021C1485.09 47.2367 1485.86 48.3213 1486.64 49.4561C1487.34 48.3258 1487.99 47.1501 1488.61 45.9287L1489.54 46.3799C1488.86 47.7653 1488.12 49.1097 1487.31 50.4131C1488.21 51.7119 1489.12 53.07 1490.06 54.4873L1489.11 55.1436C1488.26 53.8311 1487.45 52.5915 1486.67 51.4248C1485.78 52.7829 1484.82 54.0954 1483.79 55.3623C1483.56 55.1618 1483.26 54.9385 1482.9 54.6924C1484.01 53.3617 1485.04 51.9489 1486.02 50.4541C1485.13 49.1462 1484.28 47.9385 1483.49 46.8311ZM1507.92 54.46C1507.6 54.8701 1507.33 55.2575 1507.11 55.6221C1504.72 54.7243 1502.86 53.2728 1501.53 51.2676V56.8936H1500.47V51.2881C1499.13 53.1475 1497.29 54.665 1494.96 55.8408C1494.75 55.5309 1494.49 55.1891 1494.18 54.8154C1496.51 53.8219 1498.31 52.5322 1499.6 50.9463H1494.36V49.9072H1500.47V48.7041H1501.53V49.9072H1507.63V50.9463H1502.38C1503.66 52.6507 1505.51 53.8219 1507.92 54.46ZM1495.35 45.2041C1495.3 44.8395 1495.24 44.4932 1495.16 44.165C1500.18 44.1104 1504.02 43.9919 1506.69 43.8096L1506.85 44.8486C1503.83 44.9945 1500 45.113 1495.35 45.2041ZM1503.15 48.376C1503.96 47.4736 1504.83 46.4163 1505.77 45.2041L1506.73 45.915C1505.83 46.9632 1504.89 48.0205 1503.93 49.0869L1503.15 48.376ZM1499.61 45.8604L1500.51 45.3271C1501.33 46.4665 1501.92 47.3232 1502.29 47.8975L1501.29 48.4717C1500.86 47.7243 1500.3 46.8538 1499.61 45.8604ZM1495.52 46.4072L1496.32 45.8193C1497 46.6032 1497.68 47.4235 1498.36 48.2803L1497.43 48.9365C1496.77 47.9977 1496.13 47.1546 1495.52 46.4072Z" fill="#616175"/>
<path d="M1556.01 49.0596C1558.74 48.3577 1560.22 47.1729 1560.45 45.5049H1558.26C1557.93 46.1794 1557.57 46.7855 1557.17 47.3232C1556.88 47.1227 1556.57 46.9268 1556.25 46.7354C1557.11 45.7236 1557.71 44.5524 1558.07 43.2217L1559.1 43.4678C1558.96 43.8688 1558.82 44.2471 1558.67 44.6025H1565.15V45.4639L1564.22 47.3232C1563.91 47.1774 1563.58 47.0361 1563.22 46.8994L1563.95 45.5049H1561.52C1561.44 45.7965 1561.36 46.0791 1561.27 46.3525C1562.05 47.6468 1563.53 48.5446 1565.69 49.0459C1565.43 49.3923 1565.2 49.7249 1565 50.0439C1563.06 49.4242 1561.68 48.5127 1560.85 47.3096C1560.22 48.4033 1558.84 49.2874 1556.7 49.9619C1556.52 49.6885 1556.29 49.3877 1556.01 49.0596ZM1554.24 50.0166H1563.74V54.4736H1562.68V50.9736H1555.31V54.4736H1554.24V50.0166ZM1555.81 46.4209C1555.98 46.7764 1556.16 47.0999 1556.35 47.3916C1555.26 48.2028 1554.13 49.0824 1552.96 50.0303L1552.25 49.1006C1553.53 48.2165 1554.72 47.3232 1555.81 46.4209ZM1553.38 43.4541C1554.16 43.9463 1554.93 44.4567 1555.66 44.9854L1554.97 45.833C1554.31 45.3135 1553.58 44.7712 1552.78 44.2061L1553.38 43.4541ZM1559.53 51.4932C1559.52 52.4775 1559.46 53.234 1559.33 53.7627C1561.41 54.4372 1563.39 55.139 1565.28 55.8682L1564.7 56.8662C1562.98 56.1553 1561.06 55.4215 1558.95 54.665C1558.33 55.7497 1556.39 56.5016 1553.11 56.9209C1552.94 56.5745 1552.75 56.2191 1552.52 55.8545C1555.54 55.5902 1557.36 55.0251 1557.99 54.1592C1558.33 53.7035 1558.49 52.8148 1558.47 51.4932H1559.53ZM1569.64 49.333H1572.21V45.0811H1569.81V44.0693H1577.38V48.3486C1577.3 51.9762 1577.53 54.1956 1578.07 55.0068C1578.19 55.2074 1578.31 55.3122 1578.44 55.3213C1578.57 55.3122 1578.65 55.1663 1578.69 54.8838C1578.76 54.182 1578.82 53.4346 1578.87 52.6416C1579.32 52.7965 1579.66 52.9105 1579.88 52.9834C1579.8 53.9131 1579.73 54.7061 1579.66 55.3623C1579.51 56.3558 1579.2 56.8525 1578.71 56.8525C1578.18 56.8525 1577.68 56.4971 1577.21 55.7861C1576.53 54.6833 1576.22 52.3499 1576.29 48.7861V45.0811H1573.29V49.333H1575.82V50.3447H1573.29V56.8389H1572.21V50.3447H1569.64V49.333ZM1570.61 53.2158C1570.69 53.6351 1570.78 54.0179 1570.88 54.3643C1570.17 54.8382 1569.5 55.3167 1568.88 55.7998C1568.63 56.0186 1568.38 56.2874 1568.13 56.6064L1567.23 55.6904C1567.59 55.3623 1567.76 54.8883 1567.76 54.2686V49.1006H1566.18V48.0889H1568.83V54.5146C1569.38 54.1318 1569.97 53.6989 1570.61 53.2158ZM1567.39 43.6182C1568.31 44.5114 1569.03 45.2679 1569.55 45.8877L1568.62 46.6533C1568 45.8421 1567.32 45.0583 1566.59 44.3018L1567.39 43.6182ZM1586.51 46.2021H1588.54C1588.56 45.2861 1588.56 44.3473 1588.56 43.3857H1589.68C1589.68 44.3382 1589.66 45.277 1589.65 46.2021H1593.33C1593.27 49.6475 1593.18 52.4229 1593.06 54.5283C1592.96 55.8135 1592.36 56.4652 1591.27 56.4834C1590.7 56.4834 1590.09 56.4697 1589.42 56.4424C1589.36 56.0596 1589.28 55.6585 1589.2 55.2393C1589.83 55.3213 1590.4 55.3669 1590.92 55.376C1591.6 55.376 1591.95 54.9977 1591.98 54.2412C1592.11 51.9808 1592.2 49.6475 1592.22 47.2412H1589.62C1589.62 47.6331 1589.61 48.0205 1589.6 48.4033C1589.55 51.9945 1588.47 54.8291 1586.34 56.9072C1586.09 56.5973 1585.82 56.2874 1585.52 55.9775C1587.43 54.2822 1588.42 51.7484 1588.5 48.376C1588.51 48.0023 1588.52 47.624 1588.53 47.2412H1586.51V46.2021ZM1585.11 50.9189C1585.69 52.1585 1586.22 53.389 1586.7 54.6104C1586.3 54.7835 1585.96 54.9339 1585.67 55.0615C1585.61 54.8883 1585.55 54.7152 1585.48 54.542C1583.75 54.7061 1582.16 54.8701 1580.74 55.0342L1580.26 53.9268C1580.66 53.6989 1580.98 53.3298 1581.23 52.8193C1581.68 51.9215 1582.14 50.7822 1582.62 49.4014H1580.31V48.3896H1586.92V49.4014H1583.77C1582.99 51.3428 1582.32 52.8512 1581.75 53.9268C1582.8 53.8493 1583.93 53.7467 1585.13 53.6191C1584.83 52.8444 1584.51 52.0856 1584.17 51.3428L1585.11 50.9189ZM1580.89 44.5479H1586.37V45.5596H1580.89V44.5479ZM1594.71 45.2998H1600.32C1600.44 44.7347 1600.5 44.083 1600.49 43.3447H1601.52C1601.53 44.0557 1601.48 44.7074 1601.38 45.2998H1607.29V46.2705H1601.72C1603.02 48.1436 1604.99 49.4196 1607.63 50.0986C1607.37 50.3994 1607.11 50.7503 1606.87 51.1514C1604.18 50.2262 1602.21 48.7588 1600.94 46.749C1600.65 47.3916 1600.23 47.9886 1599.66 48.54C1600.38 49.0322 1601.07 49.5381 1601.74 50.0576L1601.05 50.8643C1600.48 50.3493 1599.77 49.7773 1598.94 49.1484C1597.92 49.9323 1596.55 50.641 1594.85 51.2744C1594.71 50.9554 1594.51 50.609 1594.25 50.2354C1597.36 49.2327 1599.29 47.9111 1600.02 46.2705H1594.71V45.2998ZM1597.75 51.6162H1598.81V54.5557C1598.81 55.1025 1599.09 55.376 1599.63 55.376H1602.23C1602.83 55.376 1603.19 55.1527 1603.31 54.7061C1603.42 54.2777 1603.51 53.626 1603.58 52.751C1603.84 52.8604 1604.19 52.9925 1604.64 53.1475C1604.49 54.1956 1604.38 54.8473 1604.29 55.1025C1604.09 55.932 1603.47 56.3467 1602.46 56.3467H1599.44C1598.31 56.3467 1597.75 55.7725 1597.75 54.624V51.6162ZM1595.78 51.835L1596.8 52.1631C1596.45 53.2933 1596 54.4554 1595.45 55.6494C1595.16 55.5127 1594.82 55.3805 1594.42 55.2529C1594.97 54.223 1595.42 53.0837 1595.78 51.835ZM1604.71 52.2178L1605.51 51.6025C1606.27 52.4502 1607.03 53.3571 1607.79 54.3232L1606.88 55.0205C1606.2 54.0726 1605.48 53.1383 1604.71 52.2178ZM1599.67 51.7119L1600.37 51.042C1601.11 51.6344 1601.79 52.2314 1602.42 52.833L1601.63 53.5986C1601.05 52.988 1600.4 52.359 1599.67 51.7119Z" fill="#616175"/>
<path d="M1652.29 55.8682C1655.55 54.7061 1657.5 53.0335 1658.13 50.8506H1652.56V49.8115H1658.33C1658.35 49.6156 1658.36 48.7451 1658.36 47.2002H1653.37V46.1611H1656.65C1655.86 45.2998 1655.19 44.6071 1654.64 44.083L1655.43 43.3721C1656.22 44.0739 1656.93 44.7438 1657.58 45.3818L1656.7 46.1611H1659.96C1660.67 45.1631 1661.29 44.2288 1661.83 43.3584L1662.96 43.9873C1662.34 44.7894 1661.76 45.514 1661.23 46.1611H1664.69V47.2002H1659.52C1659.52 48.54 1659.51 49.4105 1659.5 49.8115H1665.49V50.8506H1659.69C1660.76 53.1429 1662.78 54.7152 1665.74 55.5674C1665.37 55.9502 1665.03 56.3193 1664.73 56.6748C1661.92 55.5811 1660.01 53.9359 1659.01 51.7393C1658.26 53.8721 1656.29 55.5765 1653.08 56.8525C1652.84 56.5426 1652.58 56.2145 1652.29 55.8682ZM1666.27 48.9639H1672.63V45.4365H1667.37V44.3564H1678.69V45.4365H1673.78V48.9639H1679.73V50.0439H1673.78V54.7334C1673.78 55.3532 1673.67 55.7998 1673.44 56.0732C1673.18 56.3923 1672.7 56.5609 1672 56.5791C1671.59 56.5791 1670.82 56.5745 1669.69 56.5654C1669.65 56.1462 1669.57 55.7314 1669.47 55.3213C1670.5 55.3942 1671.22 55.4307 1671.62 55.4307C1672.03 55.4307 1672.3 55.3532 1672.44 55.1982C1672.57 55.0706 1672.63 54.7835 1672.63 54.3369V50.0439H1666.27V48.9639ZM1685 55.0205C1686.31 54.4007 1687.49 53.6852 1688.54 52.874C1688.16 51.6663 1687.91 50.2035 1687.8 48.4854H1684.24V50.748C1685.14 50.5885 1686.07 50.4176 1687.04 50.2354C1687.06 50.6455 1687.07 51.0055 1687.08 51.3154C1686.12 51.4977 1685.18 51.68 1684.24 51.8623V55.0752C1684.24 56.1143 1683.74 56.6383 1682.75 56.6475C1682.14 56.6566 1681.53 56.6429 1680.92 56.6064C1680.87 56.1963 1680.79 55.8089 1680.68 55.4443C1681.35 55.5355 1681.95 55.5811 1682.47 55.5811C1682.9 55.5902 1683.12 55.3714 1683.12 54.9248V52.0811C1682.21 52.2588 1681.32 52.4365 1680.44 52.6143L1680.16 51.4385C1681.11 51.2881 1682.09 51.124 1683.12 50.9463V48.4854H1680.18V47.4736H1683.12V45.4092C1682.4 45.5049 1681.62 45.6006 1680.79 45.6963C1680.73 45.3499 1680.63 44.9854 1680.49 44.6025C1682.73 44.3929 1684.66 44.1195 1686.28 43.7822L1686.6 44.876C1685.92 44.999 1685.13 45.1266 1684.24 45.2588V47.4736H1687.74C1687.67 46.3571 1687.61 45.0081 1687.53 43.4268H1688.68C1688.71 44.8851 1688.76 46.234 1688.83 47.4736H1693.82V48.4854H1688.89C1688.99 49.8936 1689.18 51.1058 1689.45 52.1221C1690.45 51.2288 1691.32 50.2354 1692.06 49.1416L1693.04 49.7979C1692.09 51.0876 1691.01 52.2337 1689.82 53.2363C1690.07 53.8835 1690.38 54.4144 1690.73 54.8291C1691.2 55.376 1691.6 55.6494 1691.95 55.6494C1692.14 55.6494 1692.28 55.499 1692.36 55.1982C1692.49 54.7243 1692.62 53.9541 1692.76 52.8877C1693.14 53.0609 1693.49 53.193 1693.81 53.2842C1693.64 54.305 1693.48 55.098 1693.32 55.6631C1693.11 56.3923 1692.66 56.7614 1691.98 56.7705C1691.19 56.7614 1690.45 56.292 1689.75 55.3623C1689.44 54.9567 1689.16 54.4805 1688.93 53.9336C1687.93 54.6719 1686.85 55.3213 1685.7 55.8818C1685.46 55.5264 1685.23 55.2393 1685 55.0205ZM1689.78 44.6436L1690.49 43.9189C1691.29 44.5296 1692.11 45.2087 1692.95 45.9561L1692.11 46.8037C1691.37 46.0472 1690.59 45.3271 1689.78 44.6436ZM1707.07 54.4736C1707.07 55.2575 1706.93 55.8089 1706.66 56.1279C1706.37 56.4469 1705.86 56.6201 1705.14 56.6475C1704.6 56.6657 1703.89 56.6566 1703.04 56.6201C1703 56.3467 1702.93 55.9775 1702.82 55.5127C1703.57 55.5674 1704.27 55.5947 1704.91 55.5947C1705.34 55.6038 1705.63 55.4945 1705.8 55.2666C1705.9 55.1117 1705.95 54.8154 1705.95 54.3779V45.6553H1702.42V44.5889H1707.07V54.4736ZM1694.18 50.0303C1695.58 47.9248 1696.59 45.7419 1697.21 43.4814L1698.28 43.9053C1697.92 44.9489 1697.53 45.9469 1697.1 46.8994V56.7705H1696.02V49.0527C1695.59 49.8411 1695.12 50.5908 1694.62 51.3018C1694.51 50.9281 1694.36 50.5042 1694.18 50.0303ZM1699.09 56.6338V46.585H1700.21V56.6338H1699.09ZM1699.13 44.0283L1699.93 43.4268C1700.76 44.3929 1701.34 45.0947 1701.67 45.5322L1700.73 46.2021C1700.38 45.6553 1699.85 44.9307 1699.13 44.0283Z" fill="#616175"/>
<g filter="url(#filter0_dd_2602_3122)">
<rect x="1784" y="25" width="96" height="50" rx="10" fill="url(#paint0_linear_2602_3122)" shape-rendering="crispEdges"/>
<path d="M1817.84 55.0068C1817.61 55.3532 1817.38 55.695 1817.17 56.0322C1815.51 55.1709 1814.18 53.945 1813.16 52.3545V56.7842H1812.18V52.3955C1811.03 54.0179 1809.75 55.2939 1808.32 56.2236C1808.06 55.8864 1807.79 55.5856 1807.53 55.3213C1809.21 54.4235 1810.59 53.2887 1811.68 51.917H1807.98V51.0146H1812.18V49.5244H1809.63V49.9619H1808.68V43.9463H1816.66V49.9619H1815.7V49.5244H1813.16V51.0146H1817.45V51.917H1813.65C1814.78 53.3525 1816.17 54.3825 1817.84 55.0068ZM1808.57 53.3662C1807.88 53.9678 1807.29 54.5146 1806.79 55.0068C1806.53 55.2712 1806.31 55.5264 1806.11 55.7725L1805.34 54.8838C1805.62 54.6195 1805.76 54.2275 1805.76 53.708V48.9229H1804.25V47.9248H1806.78V53.6123C1807.23 53.2113 1807.74 52.7373 1808.31 52.1904C1808.38 52.5824 1808.47 52.9743 1808.57 53.3662ZM1815.7 44.8213H1813.16V46.3115H1815.7V44.8213ZM1813.16 48.6494H1815.7V47.1592H1813.16V48.6494ZM1809.63 46.3115H1812.18V44.8213H1809.63V46.3115ZM1809.63 48.6494H1812.18V47.1592H1809.63V48.6494ZM1805.75 43.6729C1806.57 44.4658 1807.24 45.1904 1807.77 45.8467L1806.93 46.5439C1806.29 45.7236 1805.65 44.9808 1805.03 44.3154L1805.75 43.6729ZM1824.02 44.001H1830.8V48.6904H1829.76V48.1299H1825.05V48.6904H1824.02V44.001ZM1818.1 53.0244C1819 51.7074 1819.69 50.1488 1820.17 48.3486H1818.26V47.4463H1820.39V45.3066C1819.82 45.3887 1819.23 45.4639 1818.63 45.5322C1818.56 45.2223 1818.46 44.9079 1818.34 44.5889C1819.89 44.4613 1821.45 44.2152 1823.03 43.8506L1823.33 44.8076C1822.7 44.9352 1822.05 45.0537 1821.38 45.1631V47.4463H1823.28V48.3486H1821.38V50.1533L1821.91 49.6885C1822.27 50.0622 1822.81 50.6592 1823.51 51.4795L1822.69 52.1494C1822.16 51.4749 1821.72 50.9303 1821.38 50.5156V56.8389H1820.39V50.29C1819.91 51.8577 1819.3 53.1657 1818.56 54.2139C1818.41 53.8219 1818.26 53.4255 1818.1 53.0244ZM1822.92 55.1846H1826.83V53.1611H1823.73V52.2451H1826.83V50.3857H1823.4V49.4697H1831.37V50.3857H1827.93V52.2451H1831.03V53.1611H1827.93V55.1846H1831.84V56.1006H1822.92V55.1846ZM1829.76 44.9307H1825.05V47.2002H1829.76V44.9307ZM1833.15 46.3115H1838.41V43.3311H1839.59V46.3115H1844.91V52.5459H1843.79V51.8076H1839.59V56.8936H1838.41V51.8076H1834.27V52.5459H1833.15V46.3115ZM1843.79 47.3232H1839.59V50.7959H1843.79V47.3232ZM1834.27 50.7959H1838.41V47.3232H1834.27V50.7959ZM1849.73 45.9971H1850.87V54.0088C1850.87 54.8382 1851.24 55.2529 1851.97 55.2529H1854.91C1855.7 55.2529 1856.14 54.9248 1856.24 54.2686C1856.34 53.6943 1856.43 53.0062 1856.5 52.2041C1856.88 52.359 1857.27 52.5049 1857.68 52.6416C1857.54 53.5986 1857.41 54.3141 1857.29 54.7881C1857.05 55.8089 1856.33 56.3193 1855.13 56.3193H1851.7C1850.39 56.3193 1849.73 55.6357 1849.73 54.2686V45.9971ZM1857.44 47.0361C1858.22 48.5036 1859.02 50.1715 1859.86 52.04L1858.73 52.6006C1858.03 50.8324 1857.26 49.137 1856.42 47.5146L1857.44 47.0361ZM1847.72 47.46L1848.82 47.7607C1848.4 49.7021 1847.9 51.5889 1847.31 53.4209L1846.22 52.9971C1846.82 51.2835 1847.32 49.4378 1847.72 47.46ZM1852.74 43.249C1853.61 44.6891 1854.34 45.988 1854.94 47.1455C1854.51 47.3643 1854.15 47.5602 1853.85 47.7334C1853.21 46.3206 1852.52 44.9899 1851.78 43.7412L1852.74 43.249Z" fill="#FF5500"/>
</g>
<defs>
<filter id="filter0_dd_2602_3122" x="1764" y="5" width="136" height="90" filterUnits="userSpaceOnUse" color-interpolation-filters="sRGB">
<feFlood flood-opacity="0" result="BackgroundImageFix"/>
<feColorMatrix in="SourceAlpha" type="matrix" values="0 0 0 0 0 0 0 0 0 0 0 0 0 0 0 0 0 0 127 0" result="hardAlpha"/>
<feOffset dx="5" dy="5"/>
<feGaussianBlur stdDeviation="7.5"/>
<feComposite in2="hardAlpha" operator="out"/>
<feColorMatrix type="matrix" values="0 0 0 0 0.819608 0 0 0 0 0.85098 0 0 0 0 0.901961 0 0 0 1 0"/>
<feBlend mode="multiply" in2="BackgroundImageFix" result="effect1_dropShadow_2602_3122"/>
<feColorMatrix in="SourceAlpha" type="matrix" values="0 0 0 0 0 0 0 0 0 0 0 0 0 0 0 0 0 0 127 0" result="hardAlpha"/>
<feOffset dx="-5" dy="-5"/>
<feGaussianBlur stdDeviation="7.5"/>
<feComposite in2="hardAlpha" operator="out"/>
<feColorMatrix type="matrix" values="0 0 0 0 1 0 0 0 0 1 0 0 0 0 1 0 0 0 1 0"/>
<feBlend mode="color-dodge" in2="effect1_dropShadow_2602_3122" result="effect2_dropShadow_2602_3122"/>
<feBlend mode="normal" in="SourceGraphic" in2="effect2_dropShadow_2602_3122" result="shape"/>
</filter>
<linearGradient id="paint0_linear_2602_3122" x1="1879.76" y1="25" x2="1784" y2="24.967" gradientUnits="userSpaceOnUse">
<stop stop-color="white"/>
<stop offset="1" stop-color="#ECF0F3"/>
</linearGradient>
</defs>
</svg>
