<svg width="1920" height="612" viewBox="0 0 1920 612" fill="none" xmlns="http://www.w3.org/2000/svg">
	<g id="Mask">
		<path d="M1920 1.29012V603.88C1914.26 603.953 1908.42 604.037 1902.49 604.13L1893.49 604.27L1888.95 604.35L1884.37 604.43C1870.31 604.67 1855.78 604.95 1840.77 605.27L1831.85 605.45L1809.59 605.91L1803.35 606.04L1799.75 606.12L1791.32 606.29L1788.82 606.34L1780.91 606.5L1770.31 606.71L1759.77 606.92L1754.42 607.02L1749.05 607.12L1738.23 607.32L1728.94 607.48H1727.32L1721.84 607.57C1690.68 608.09 1658.45 608.52 1625.48 608.72C1621.61 608.72 1617.72 608.72 1613.82 608.78H1604.88H1591.38C1514.93 608.87 1435.2 607.58 1356.02 603.46C1125.68 591.46 800.57 606.86 580.39 605.46C344.72 604.05 85.0002 607.61 17.0002 611L12.2302 611.23L8.32023 611.39C5.49023 611.51 2.71023 611.6 -0.00976562 611.68V5.07012H7.08023H12.3602L29.7502 5.00012L44.4502 4.93012H48.0802H54.4502H59.5402H64.6802L72.2102 4.88012H72.5102H77.1902L87.3002 4.81012H91.3002L99.5302 4.75012H105.08L116.92 4.66012H124.11H126.2L134.98 4.59012H140.47L148.12 4.53012L208.79 4.02012L220.55 3.92012H221.23L231.79 3.83012L238.33 3.77012L244.33 3.72012L256.33 3.61012L262.33 3.56012L284.83 3.35012L291.26 3.29012L304 2.80012L310.45 2.74012L329.83 2.56012L339.63 2.47012L349.22 2.39012L359.33 2.30012L371.48 2.19012L401.78 1.92012L413.44 1.82012H413.76L424.22 1.73012L470 1.34012L476.16 1.29012C500.73 1.09012 524.62 0.900117 547.44 0.740117L555.95 0.680118L569.95 0.590117L576.95 0.540117L594.6 0.440117H597.72H602.64H607.33H609.89H614.98H623.26H631.06L648.89 0.370117H653.19C664.59 0.370117 675.31 0.370117 685.28 0.370117H1567.01C1711.39 0.370117 1813.46 2.37012 1889.35 2.37012H1892.91H1894.73C1897.87 2.37012 1901.11 2.25012 1904.43 2.15012L1908.02 2.03012H1909.02L1912.02 1.92012L1920 1.29012Z" fill="white" />
	</g>
</svg>
