<svg width="1150" height="181" viewBox="0 0 1150 181" fill="none" xmlns="http://www.w3.org/2000/svg">
<path d="M977.269 155.076H1007.26V0.823975H1033.52V180.36H977.269V155.076ZM977.073 9.44798H1001.96V144.884H977.073V9.44798ZM1040.77 0.823975H1149.36V26.304H1109.37V46.884H1148.77V167.228H1113.29V141.944H1121.13V72.364H1109.37V180.36H1081.74V72.364H1069.98V167.228H1042.34V46.884H1081.74V26.304H1040.77V0.823975Z" fill="black"/>
<path d="M802.241 82.948H776.761V52.96H802.241V33.164L778.917 33.948V4.15603L857.513 1.60803V31.204L833.993 31.988V52.96H859.669V82.948H833.993V180.36H802.241V82.948ZM780.093 90.984H799.105L795.773 180.36H776.761L780.093 90.984ZM855.553 90.984L858.885 180.36H839.873L836.541 90.984H855.553ZM860.845 152.136H891.421V144.1H864.961V116.464H891.421V108.232H863.001V80.008H951.985V108.232H923.369V116.464H950.025V144.1H923.369V152.136H953.945V180.556H860.845V152.136ZM863.001 1.60803H952.181V73.344H863.001V1.60803ZM920.233 44.532V30.42H894.753V44.532H920.233Z" fill="black"/>
<path d="M579.389 149.98H652.693V31.4H586.445V1.80396H750.693V31.4H684.445V149.98H757.749V179.576H579.389V149.98Z" fill="black"/>
<path d="M444.149 1.41199H563.709V69.032H475.901V180.948H444.149V1.41199ZM382.997 151.156H396.325V128.028H382.997V98.04H396.325V61.192H382.997V31.4H396.325V1.99998H427.881V31.4H439.249V61.192H427.881V98.04H439.249V128.028H427.881V180.948H382.997V151.156ZM531.957 43.552V27.088H475.901V43.552H531.957ZM481.389 122.148H506.673V109.016H481.389V83.536H506.673V74.912H538.621V83.536H563.709V109.016H538.621V122.148H563.709V180.948H481.389V122.148ZM532.937 160.172V142.924H512.357V160.172H532.937Z" fill="black"/>
<path d="M309.889 134.3L289.701 90.2H322.629L326.745 99.216L330.469 91.768V51.392H319.885L316.553 72.56H287.545L297.345 4.35201H327.137L324.393 21.796H367.121V51.392H358.889V99.608L342.229 132.732L364.377 180.752H331.057L324.981 167.424L318.317 180.752H287.349L309.889 134.3ZM187.389 159.78H200.717L212.477 152.528L197.385 142.532V123.716H187.389V102.548H197.385V95.884H222.865V102.548H247.365V95.884H274.413V102.548H284.605V123.716H274.413V142.532L258.537 153.116L269.513 159.78H284.605V180.948H254.617L235.801 168.404L216.985 180.948H187.389V159.78ZM193.661 62.956H218.749L212.869 92.944H187.585L193.661 62.956ZM187.585 37.672H220.121V4.15601H251.873V37.672H284.605V58.84H251.873V92.944H220.121V58.84H187.585V37.672ZM211.301 6.116L216.397 34.34H192.485L187.585 6.116H211.301ZM235.213 138.612L247.365 131.164V123.716H222.865V131.164L235.213 138.612ZM278.921 62.956L284.605 92.944H258.929L253.245 62.956H278.921ZM260.693 6.116H284.605L279.313 34.34H255.597L260.693 6.116Z" fill="black"/>
<path d="M136.89 9.25195H169.23V180.948H136.89V9.25195Z" fill="black"/>
<path d="M35.2958 9.25195H82.9238L117.224 180.948H84.8838L78.8078 150.568H39.4118L33.1398 180.948H0.799805L35.2958 9.25195ZM72.7318 120.384L59.0118 51.98L45.4878 120.384H72.7318Z" fill="black"/>
</svg>
