<svg width="1150" height="181" viewBox="0 0 1150 181" fill="none" xmlns="http://www.w3.org/2000/svg">
<path d="M977.269 154.252H1007.26V0H1033.52V179.536H977.269V154.252ZM977.073 8.62401H1001.96V144.06H977.073V8.62401ZM1040.77 0H1149.36V25.48H1109.37V46.06H1148.77V166.404H1113.29V141.12H1121.13V71.54H1109.37V179.536H1081.74V71.54H1069.98V166.404H1042.34V46.06H1081.74V25.48H1040.77V0Z" fill="#CA74FF"/>
<path d="M802.241 82.1241H776.761V52.1361H802.241V32.3401L778.917 33.1241V3.33206L857.513 0.784058V30.3801L833.993 31.1641V52.1361H859.669V82.1241H833.993V179.536H802.241V82.1241ZM780.093 90.1601H799.105L795.773 179.536H776.761L780.093 90.1601ZM855.553 90.1601L858.885 179.536H839.873L836.541 90.1601H855.553ZM860.845 151.312H891.421V143.276H864.961V115.64H891.421V107.408H863.001V79.1841H951.985V107.408H923.369V115.64H950.025V143.276H923.369V151.312H953.945V179.732H860.845V151.312ZM863.001 0.784058H952.181V72.5201H863.001V0.784058ZM920.233 43.7081V29.5961H894.753V43.7081H920.233Z" fill="#CA74FF"/>
<path d="M579.389 149.156H652.693V30.576H586.445V0.97998H750.693V30.576H684.445V149.156H757.749V178.752H579.389V149.156Z" fill="#CA74FF"/>
<path d="M444.149 0.588013H563.709V68.208H475.901V180.124H444.149V0.588013ZM382.997 150.332H396.325V127.204H382.997V97.216H396.325V60.368H382.997V30.576H396.325V1.17601H427.881V30.576H439.249V60.368H427.881V97.216H439.249V127.204H427.881V180.124H382.997V150.332ZM531.957 42.728V26.264H475.901V42.728H531.957ZM481.389 121.324H506.673V108.192H481.389V82.712H506.673V74.088H538.621V82.712H563.709V108.192H538.621V121.324H563.709V180.124H481.389V121.324ZM532.937 159.348V142.1H512.357V159.348H532.937Z" fill="#CA74FF"/>
<path d="M309.889 133.476L289.701 89.376H322.629L326.745 98.392L330.469 90.944V50.568H319.885L316.553 71.736H287.545L297.345 3.52803H327.137L324.393 20.972H367.121V50.568H358.889V98.784L342.229 131.908L364.377 179.928H331.057L324.981 166.6L318.317 179.928H287.349L309.889 133.476ZM187.389 158.956H200.717L212.477 151.704L197.385 141.708V122.892H187.389V101.724H197.385V95.06H222.865V101.724H247.365V95.06H274.413V101.724H284.605V122.892H274.413V141.708L258.537 152.292L269.513 158.956H284.605V180.124H254.617L235.801 167.58L216.985 180.124H187.389V158.956ZM193.661 62.132H218.749L212.869 92.12H187.585L193.661 62.132ZM187.585 36.848H220.121V3.33203H251.873V36.848H284.605V58.016H251.873V92.12H220.121V58.016H187.585V36.848ZM211.301 5.29203L216.397 33.516H192.485L187.585 5.29203H211.301ZM235.213 137.788L247.365 130.34V122.892H222.865V130.34L235.213 137.788ZM278.921 62.132L284.605 92.12H258.929L253.245 62.132H278.921ZM260.693 5.29203H284.605L279.313 33.516H255.597L260.693 5.29203Z" fill="#CA74FF"/>
<path d="M136.89 8.42798H169.23V180.124H136.89V8.42798Z" fill="#CA74FF"/>
<path d="M35.2958 8.42798H82.9238L117.224 180.124H84.8838L78.8078 149.744H39.4118L33.1398 180.124H0.799805L35.2958 8.42798ZM72.7318 119.56L59.0118 51.156L45.4878 119.56H72.7318Z" fill="#CA74FF"/>
</svg>
