<svg width="302" height="272" viewBox="0 0 302 272" fill="none" xmlns="http://www.w3.org/2000/svg">
<g filter="url(#filter0_d_7167_7901)">
<rect x="146" y="63" width="10" height="181" fill="#892BC3"/>
<path d="M74.9686 109.06C73.1356 105.936 73.1356 102.064 74.9686 98.9399L82.5953 85.9399C84.3905 82.8798 87.6727 81 91.2205 81L210.779 81C214.327 81 217.609 82.8798 219.405 85.9399L227.031 98.9399C228.864 102.064 228.864 105.936 227.031 109.06L219.405 122.06C217.609 125.12 214.327 127 210.779 127L91.2205 127C87.6727 127 84.3905 125.12 82.5953 122.06L74.9686 109.06Z" fill="#CA74FF"/>
<path d="M98.8633 98.7393H105.314V96.0674H106.686V98.7393H113.172V109.831H111.836V108.759H106.686V113.399H105.314V108.759H100.199V109.831H98.8633V98.7393ZM106.686 107.528H111.836V104.329H106.686V107.528ZM100.199 107.528H105.314V104.329H100.199V107.528ZM111.836 99.9697H106.686V103.134H111.836V99.9697ZM100.199 103.134H105.314V99.9697H100.199V103.134ZM122.84 113.224H121.469V104.312H131.242V111.149C131.242 112.415 130.592 113.054 129.291 113.065C128.6 113.077 127.715 113.083 126.637 113.083C126.578 112.708 126.49 112.257 126.373 111.729C127.393 111.8 128.225 111.835 128.869 111.835C129.537 111.835 129.871 111.53 129.871 110.921V110.042H122.84V113.224ZM119.922 102.132H125.6V100.919H121.1V99.8115H125.6V98.6338H120.484V97.5264H125.6V95.9443H127.023V97.5264H132.385V98.6338H127.023V99.8115H131.928V100.919H127.023V102.132H132.736V103.239H119.922V102.132ZM120.783 108.882C120.818 109.468 120.859 109.978 120.906 110.411C119.641 111.255 118.568 112.017 117.689 112.696L116.881 111.536C117.279 111.161 117.479 110.651 117.479 110.007V103.362H115.334V102.079H118.814V110.271C119.471 109.825 120.127 109.362 120.783 108.882ZM129.871 105.437H122.84V106.649H129.871V105.437ZM122.84 108.952H129.871V107.739H122.84V108.952ZM117.32 96.542C118.281 97.4912 119.131 98.376 119.869 99.1963L118.639 100.216C117.83 99.1729 117.039 98.2471 116.266 97.4385L117.32 96.542ZM133.369 112.257C136.779 111.144 139.053 109.345 140.189 106.86H136.709V107.528H135.355V102.255C134.957 102.595 134.553 102.917 134.143 103.222C134.002 103.022 133.686 102.636 133.193 102.062C135.291 100.644 137.23 98.6338 139.012 96.0322L140.348 96.5244C140.031 96.9932 139.715 97.4443 139.398 97.8779H146.271V99.126L144.303 101.095H148.521V107.528H147.168V106.86H141.666C140.576 109.849 138.115 112.081 134.283 113.558C133.955 112.972 133.65 112.538 133.369 112.257ZM147.168 102.325H142.51C142.428 103.556 142.27 104.657 142.035 105.63H147.168V102.325ZM136.709 105.63H140.629C140.91 104.681 141.08 103.579 141.139 102.325H136.709V105.63ZM144.426 99.1084H138.432C137.846 99.8115 137.242 100.474 136.621 101.095H142.475L144.426 99.1084ZM141.877 107.757H143.23V110.358C143.23 110.874 143.318 111.214 143.494 111.378C143.682 111.565 144.051 111.659 144.602 111.659H147.625C148.469 111.659 148.949 111.308 149.066 110.604C149.207 109.843 149.301 108.987 149.348 108.038C149.805 108.226 150.256 108.396 150.701 108.548C150.619 109.462 150.514 110.294 150.385 111.044C150.197 112.321 149.301 112.96 147.695 112.96H144.197C143.307 112.96 142.697 112.778 142.369 112.415C142.041 112.11 141.877 111.507 141.877 110.604V107.757ZM152.477 97.6318H157.521C157.545 97.1045 157.557 96.6123 157.557 96.1553H158.822C158.822 96.6123 158.811 97.1045 158.787 97.6318H161.846V96.1553H163.111V97.6318H167.348V101.64H166.082V101.2H163.111V102.782H168.139C168.115 103.626 168.051 104.347 167.945 104.944C167.816 105.765 167.289 106.175 166.363 106.175C166.223 106.175 166.047 106.175 165.836 106.175V110.464H164.57V106.878H155.746V110.675H154.48V106.878C153.766 107.194 152.951 107.487 152.037 107.757C151.885 107.417 151.633 107.013 151.281 106.544C153.953 105.97 155.717 105.056 156.572 103.802H152.705L153.268 100.181H157.451C157.486 99.7236 157.504 99.2139 157.504 98.6514H152.477V97.6318ZM164.342 104.944C164.998 105.015 165.543 105.05 165.977 105.05C166.445 105.05 166.715 104.874 166.785 104.522C166.832 104.265 166.861 104.024 166.873 103.802H163.111V105.524H161.846V103.802H158.066C157.75 104.517 157.199 105.167 156.414 105.753H164.588C164.529 105.53 164.447 105.261 164.342 104.944ZM159.525 107.862H160.773C160.773 108.612 160.691 109.274 160.527 109.849C163.199 110.634 165.625 111.413 167.805 112.187L167.154 113.452C164.787 112.573 162.432 111.747 160.088 110.974C159.361 112.157 156.959 112.989 152.881 113.47C152.658 112.907 152.459 112.485 152.283 112.204C154.99 111.946 157.023 111.495 158.383 110.851C159.168 110.464 159.549 109.468 159.525 107.862ZM158.4 102.782H161.846V101.2H158.646C158.588 101.821 158.506 102.349 158.4 102.782ZM154.129 102.782H157.064C157.193 102.372 157.293 101.845 157.363 101.2H154.34L154.129 102.782ZM158.717 100.181H161.846V98.6514H158.77C158.77 99.2021 158.752 99.7119 158.717 100.181ZM166.082 98.6514H163.111V100.181H166.082V98.6514ZM174.379 99.5303H180.795C180.783 98.4463 180.777 97.2686 180.777 95.9971H182.166C182.143 97.3916 182.137 98.5693 182.148 99.5303H186.49V100.813H182.175C182.292 105.771 182.846 109.146 183.836 110.938C184.199 111.548 184.504 111.853 184.75 111.853C184.949 111.853 185.09 111.618 185.172 111.149C185.289 110.435 185.377 109.503 185.436 108.354C185.939 108.554 186.379 108.706 186.754 108.812C186.602 110.136 186.455 111.144 186.314 111.835C186.127 112.819 185.635 113.312 184.838 113.312C184.182 113.312 183.531 112.86 182.887 111.958C181.691 110.224 181.006 106.509 180.83 100.813H174.379V99.5303ZM174.062 110.815C174.947 110.698 175.873 110.563 176.84 110.411V104.962H174.326V103.714H180.408V104.962H178.141V110.209C179.061 110.057 180.016 109.89 181.006 109.708C180.982 110.177 180.971 110.634 180.971 111.079C178.404 111.489 176.219 111.858 174.414 112.187L174.062 110.815ZM174.73 107.247C174.789 107.903 174.854 108.472 174.924 108.952C174.139 109.702 173.354 110.481 172.568 111.29C172.205 111.665 171.9 112.022 171.654 112.362L170.67 111.237C171.08 110.78 171.285 110.218 171.285 109.55V103.081H169.246V101.833H172.621V109.392C173.254 108.782 173.957 108.067 174.73 107.247ZM170.969 96.4541C172.023 97.4854 172.949 98.458 173.746 99.3721L172.586 100.374C171.848 99.4014 170.975 98.3936 169.967 97.3506L170.969 96.4541ZM182.834 97.2275L183.643 96.3838C184.58 97.0752 185.324 97.6846 185.875 98.2119L184.908 99.1963C184.264 98.5049 183.572 97.8486 182.834 97.2275ZM187.404 107.177H195.631V106.192L198.988 104.294H190.727V103.011H201.045V104.487L197.055 106.79V107.177H204.613V108.46H197.055V111.114C197.055 112.497 196.357 113.188 194.963 113.188C194.189 113.188 193.281 113.177 192.238 113.153C192.203 112.755 192.133 112.257 192.027 111.659C192.965 111.753 193.861 111.806 194.717 111.817C195.326 111.829 195.631 111.507 195.631 110.851V108.46H187.404V107.177ZM188.002 100.005H204.033V103.556H202.645V101.288H189.391V103.556H188.002V100.005ZM199.129 98.9854C199.914 98.1416 200.652 97.2334 201.344 96.2607L202.609 97.1924C201.848 98.0596 201.033 98.9678 200.166 99.917L199.129 98.9854ZM194.137 96.6123L195.279 95.9443C195.994 96.8818 196.656 97.8369 197.266 98.8096L196 99.5303C195.484 98.6162 194.863 97.6436 194.137 96.6123ZM189.391 97.1396L190.428 96.3838C191.143 97.1689 191.846 98.0186 192.537 98.9326L191.342 99.7764C190.686 98.7803 190.035 97.9014 189.391 97.1396Z" fill="white"/>
</g>
<defs>
<filter id="filter0_d_7167_7901" x="-25" y="-21" width="352" height="294" filterUnits="userSpaceOnUse" color-interpolation-filters="sRGB">
<feFlood flood-opacity="0" result="BackgroundImageFix"/>
<feColorMatrix in="SourceAlpha" type="matrix" values="0 0 0 0 0 0 0 0 0 0 0 0 0 0 0 0 0 0 127 0" result="hardAlpha"/>
<feOffset dy="4"/>
<feGaussianBlur stdDeviation="12.5"/>
<feComposite in2="hardAlpha" operator="out"/>
<feColorMatrix type="matrix" values="0 0 0 0 0.340288 0 0 0 0 0 0 0 0 0 0.55 0 0 0 0.5 0"/>
<feBlend mode="multiply" in2="BackgroundImageFix" result="effect1_dropShadow_7167_7901"/>
<feBlend mode="normal" in="SourceGraphic" in2="effect1_dropShadow_7167_7901" result="shape"/>
</filter>
</defs>
</svg>
