<svg width="1158" height="313" viewBox="0 0 1158 313" fill="none" xmlns="http://www.w3.org/2000/svg">
<path d="M1081.97 253.024H1099.88L1078.9 312.066H1060.98L1081.97 253.024ZM1060.98 231.082H1124.37V215.076H1141.65V231.082H1157.23V247.088H1141.65V312.066H1138.04V312.172H1103.91V296.166H1124.37V247.088H1060.98V231.082Z" fill="black"/>
<path d="M954.346 296.166H965.37L998.866 214.546H1016.78L976.712 312.172H954.346V296.166ZM1023.67 254.296L1040.21 296.166H1050.91V312.172H1029.39L1005.97 254.296H1023.67Z" fill="black"/>
<path d="M848.558 214.652H944.594V227.796H904.844V231.188H944.594V265.002H927.316V243.378H904.844V265.002H887.566V243.378H865.73V265.002H848.558V231.188H887.566V227.796H848.558V214.652ZM848.346 285.566H889.156V281.22H848.346V268.394H944.382V281.22H906.434V285.566H944.382V312.172H922.122V301.678H927.104V297.438H918.836V312.172H901.558V297.438H891.064V312.172H873.892V297.438H865.518V312.172H848.346V285.566ZM869.016 256.31H885.128V264.26H869.016V256.31ZM869.016 246.134H885.128V254.19H869.016V246.134ZM908.13 256.31H924.136V264.26H908.13V256.31ZM908.13 246.134H924.136V254.19H908.13V246.134Z" fill="black"/>
<path d="M771.708 295.954H786.548V288.322H776.054L771.496 277.298L766.832 288.322H756.656V312.066H742.876V214.864H800.328V312.066H771.708V295.954ZM765.348 262.564L756.656 241.576V283.446L765.348 262.564ZM767.044 237.018L771.496 247.83L776.054 237.018H786.548V229.81H756.656V237.018H767.044ZM786.548 283.976V241.046L777.644 262.458L786.548 283.976ZM805.628 217.09H818.03V290.654H805.628V217.09ZM807.748 295.848H824.496V214.97H839.124V311.96H807.748V295.848Z" fill="black"/>
<path d="M635.71 221.966H650.55V214.758H667.616V221.966H682.35V312.066H635.71V221.966ZM665.178 296.06V275.284H652.988V296.06H665.178ZM665.178 259.172V237.972H652.988V259.172H665.178ZM691.36 214.864H709.168L707.684 223.556H734.078V312.066H691.148V299.664H716.906V239.668H704.822L703.762 245.71H685.848L691.36 214.864ZM705.352 250.586L708.426 292.986H692.632L689.558 250.586H705.352Z" fill="black"/>
<path d="M587.162 257.37H567.128V241.258H583.24L576.88 214.97H596.702L603.062 241.258H627.654V257.37H606.984L616.312 295.954H627.654V311.96H600.518L587.162 257.37ZM530.876 243.484H539.144L545.08 214.758H562.146L553.772 255.992H557.376V312.172H540.098V259.702H530.876V243.484ZM619.81 215.606L624.686 236.064H608.15L603.38 215.606H619.81Z" fill="black"/>
<path d="M483.6 295.636H498.334V242H470.774V225.888H498.334V215.394H515.612V225.888H521.548V242H515.612V311.642H483.6V295.636ZM424.346 218.362H467.17V311.642H424.346V218.362ZM449.998 295.636V273.058H441.518V295.636H449.998ZM449.998 256.946V234.474H441.518V256.946H449.998ZM490.278 249.208L492.61 289.912H475.438L473.106 249.208H490.278Z" fill="black"/>
<path d="M377.07 270.832L364.35 279.736H339.97V264.79H353.22L361.064 259.596L346.118 249.102V237.76H339.97V221.648H368.378V215.394H385.656V221.648H414.17V237.76H407.916V249.102L392.864 259.702L400.708 264.79H414.17V279.736H389.684L377.07 270.832ZM319.088 262.776H336.366V312.914H319.088V262.776ZM319.088 238.926H336.366V256.204H319.088V238.926ZM319.088 215.394H336.366V232.566H319.088V215.394ZM347.708 282.386H365.516L360.746 312.914H342.938L347.708 282.386ZM376.964 249.314L389.154 241.364V237.76H364.774V241.364L376.964 249.314ZM391.698 282.386H408.976V312.914H391.698V282.386Z" fill="black"/>
<path d="M250.082 247.83H262.166L279.55 232.248H250.612V216.242H303.506V232.248L297.04 238.82L309.866 262.776H290.998L284.85 251.116L273.296 262.776H250.082V247.83ZM211.816 296.166H247.22V312.278H211.816V296.166ZM211.816 274.224L225.914 257.158H213.194V241.046L223.476 215.394H241.814L231.956 241.046H245.736V257.158L233.122 274.224H247.22V290.336H211.816V274.224ZM250.082 295.742H270.858V282.174H250.082V266.168H308.594V282.174H287.924V295.742H308.594V311.854H250.082V295.742Z" fill="black"/>
<path d="M109.632 272.21H159.346L171.642 261.504H115.886V246.558H196.234V261.504L183.408 272.21H202.7V287.156H173.126V311.854H128.712V296.908H155.954V287.156H109.632V272.21ZM110.586 218.468H147.368V211.896H164.646V218.468H201.534V242.636H184.256V233.414H127.652V242.636H110.586V218.468Z" fill="black"/>
<path d="M66.8081 287.05L55.8901 263.2H73.6981L75.9241 268.076L77.9381 264.048V242.212H72.2141L70.4121 253.66H54.7241L60.0241 216.772H76.1361L74.6521 226.206H97.7601V242.212H93.3081V268.288L84.2981 286.202L96.2761 312.172H78.2561L74.9701 304.964L71.3661 312.172H54.6181L66.8081 287.05ZM0.558105 300.83H7.76611L14.1261 296.908L5.96411 291.502V281.326H0.558105V269.878H5.96411V266.274H19.7441V269.878H32.9941V266.274H47.6221V269.878H53.1341V281.326H47.6221V291.502L39.0361 297.226L44.9721 300.83H53.1341V312.278H36.9161L26.7401 305.494L16.5641 312.278H0.558105V300.83ZM3.95011 248.466H17.5181L14.3381 264.684H0.664106L3.95011 248.466ZM0.664106 234.792H18.2601V216.666H35.4321V234.792H53.1341V246.24H35.4321V264.684H18.2601V246.24H0.664106V234.792ZM13.4901 217.726L16.2461 232.99H3.31411L0.664106 217.726H13.4901ZM26.4221 289.382L32.9941 285.354V281.326H19.7441V285.354L26.4221 289.382ZM50.0601 248.466L53.1341 264.684H39.2481L36.1741 248.466H50.0601ZM40.2021 217.726H53.1341L50.2721 232.99H37.4461L40.2021 217.726Z" fill="black"/>
<path d="M978.269 155.076H1008.26V0.823975H1034.52V180.36H978.269V155.076ZM978.073 9.44798H1002.96V144.884H978.073V9.44798ZM1041.77 0.823975H1150.36V26.304H1110.37V46.884H1149.77V167.228H1114.29V141.944H1122.13V72.364H1110.37V180.36H1082.74V72.364H1070.98V167.228H1043.34V46.884H1082.74V26.304H1041.77V0.823975Z" fill="black"/>
<path d="M803.241 82.9479H777.761V52.9599H803.241V33.1639L779.917 33.9479V4.15591L858.513 1.60791V31.2039L834.993 31.9879V52.9599H860.669V82.9479H834.993V180.36H803.241V82.9479ZM781.093 90.9839H800.105L796.773 180.36H777.761L781.093 90.9839ZM856.553 90.9839L859.885 180.36H840.873L837.541 90.9839H856.553ZM861.845 152.136H892.421V144.1H865.961V116.464H892.421V108.232H864.001V80.0079H952.985V108.232H924.369V116.464H951.025V144.1H924.369V152.136H954.945V180.556H861.845V152.136ZM864.001 1.60791H953.181V73.3439H864.001V1.60791ZM921.233 44.5319V30.4199H895.753V44.5319H921.233Z" fill="black"/>
<path d="M580.389 149.98H653.693V31.4H587.445V1.80396H751.693V31.4H685.445V149.98H758.749V179.576H580.389V149.98Z" fill="black"/>
<path d="M445.149 1.41211H564.709V69.0321H476.901V180.948H445.149V1.41211ZM383.997 151.156H397.325V128.028H383.997V98.0401H397.325V61.1921H383.997V31.4001H397.325V2.0001H428.881V31.4001H440.249V61.1921H428.881V98.0401H440.249V128.028H428.881V180.948H383.997V151.156ZM532.957 43.5521V27.0881H476.901V43.5521H532.957ZM482.389 122.148H507.673V109.016H482.389V83.5361H507.673V74.9121H539.621V83.5361H564.709V109.016H539.621V122.148H564.709V180.948H482.389V122.148ZM533.937 160.172V142.924H513.357V160.172H533.937Z" fill="black"/>
<path d="M310.889 134.3L290.701 90.2H323.629L327.745 99.216L331.469 91.768V51.392H320.885L317.553 72.56H288.545L298.345 4.35201H328.137L325.393 21.796H368.121V51.392H359.889V99.608L343.229 132.732L365.377 180.752H332.057L325.981 167.424L319.317 180.752H288.349L310.889 134.3ZM188.389 159.78H201.717L213.477 152.528L198.385 142.532V123.716H188.389V102.548H198.385V95.884H223.865V102.548H248.365V95.884H275.413V102.548H285.605V123.716H275.413V142.532L259.537 153.116L270.513 159.78H285.605V180.948H255.617L236.801 168.404L217.985 180.948H188.389V159.78ZM194.661 62.956H219.749L213.869 92.944H188.585L194.661 62.956ZM188.585 37.672H221.121V4.15601H252.873V37.672H285.605V58.84H252.873V92.944H221.121V58.84H188.585V37.672ZM212.301 6.116L217.397 34.34H193.485L188.585 6.116H212.301ZM236.213 138.612L248.365 131.164V123.716H223.865V131.164L236.213 138.612ZM279.921 62.956L285.605 92.944H259.929L254.245 62.956H279.921ZM261.693 6.116H285.605L280.313 34.34H256.597L261.693 6.116Z" fill="black"/>
<path d="M137.89 9.25195H170.23V180.948H137.89V9.25195Z" fill="black"/>
<path d="M36.2958 9.25195H83.9238L118.224 180.948H85.8838L79.8078 150.568H40.4118L34.1398 180.948H1.7998L36.2958 9.25195ZM73.7318 120.384L60.0118 51.98L46.4878 120.384H73.7318Z" fill="black"/>
</svg>
