<svg width="1157" height="313" viewBox="0 0 1157 313" fill="none" xmlns="http://www.w3.org/2000/svg">
<path d="M1081.41 253.024H1099.33L1078.34 312.066H1060.42L1081.41 253.024ZM1060.42 231.082H1123.81V215.076H1141.09V231.082H1156.67V247.088H1141.09V312.066H1137.49V312.172H1103.35V296.166H1123.81V247.088H1060.42V231.082Z" fill="#CA74FF"/>
<path d="M953.788 296.166H964.812L998.308 214.546H1016.22L976.154 312.172H953.788V296.166ZM1023.11 254.296L1039.65 296.166H1050.35V312.172H1028.84L1005.41 254.296H1023.11Z" fill="#CA74FF"/>
<path d="M848 214.652H944.036V227.796H904.286V231.188H944.036V265.002H926.758V243.378H904.286V265.002H887.008V243.378H865.172V265.002H848V231.188H887.008V227.796H848V214.652ZM847.788 285.566H888.598V281.22H847.788V268.394H943.824V281.22H905.876V285.566H943.824V312.172H921.564V301.678H926.546V297.438H918.278V312.172H901V297.438H890.506V312.172H873.334V297.438H864.96V312.172H847.788V285.566ZM868.458 256.31H884.57V264.26H868.458V256.31ZM868.458 246.134H884.57V254.19H868.458V246.134ZM907.572 256.31H923.578V264.26H907.572V256.31ZM907.572 246.134H923.578V254.19H907.572V246.134Z" fill="#CA74FF"/>
<path d="M771.15 295.954H785.99V288.322H775.496L770.938 277.298L766.274 288.322H756.098V312.066H742.318V214.864H799.77V312.066H771.15V295.954ZM764.79 262.564L756.098 241.576V283.446L764.79 262.564ZM766.486 237.018L770.938 247.83L775.496 237.018H785.99V229.81H756.098V237.018H766.486ZM785.99 283.976V241.046L777.086 262.458L785.99 283.976ZM805.07 217.09H817.472V290.654H805.07V217.09ZM807.19 295.848H823.938V214.97H838.566V311.96H807.19V295.848Z" fill="#CA74FF"/>
<path d="M635.152 221.966H649.992V214.758H667.058V221.966H681.792V312.066H635.152V221.966ZM664.62 296.06V275.284H652.43V296.06H664.62ZM664.62 259.172V237.972H652.43V259.172H664.62ZM690.802 214.864H708.61L707.126 223.556H733.52V312.066H690.59V299.664H716.348V239.668H704.264L703.204 245.71H685.29L690.802 214.864ZM704.794 250.586L707.868 292.986H692.074L689 250.586H704.794Z" fill="#CA74FF"/>
<path d="M586.604 257.37H566.57V241.258H582.682L576.322 214.97H596.144L602.504 241.258H627.096V257.37H606.426L615.754 295.954H627.096V311.96H599.96L586.604 257.37ZM530.318 243.484H538.586L544.522 214.758H561.588L553.214 255.992H556.818V312.172H539.54V259.702H530.318V243.484ZM619.252 215.606L624.128 236.064H607.592L602.822 215.606H619.252Z" fill="#CA74FF"/>
<path d="M483.042 295.636H497.776V242H470.216V225.888H497.776V215.394H515.054V225.888H520.99V242H515.054V311.642H483.042V295.636ZM423.788 218.362H466.612V311.642H423.788V218.362ZM449.44 295.636V273.058H440.96V295.636H449.44ZM449.44 256.946V234.474H440.96V256.946H449.44ZM489.72 249.208L492.052 289.912H474.88L472.548 249.208H489.72Z" fill="#CA74FF"/>
<path d="M376.511 270.832L363.791 279.736H339.411V264.79H352.661L360.505 259.596L345.559 249.102V237.76H339.411V221.648H367.819V215.394H385.097V221.648H413.611V237.76H407.357V249.102L392.305 259.702L400.149 264.79H413.611V279.736H389.125L376.511 270.832ZM318.529 262.776H335.807V312.914H318.529V262.776ZM318.529 238.926H335.807V256.204H318.529V238.926ZM318.529 215.394H335.807V232.566H318.529V215.394ZM347.149 282.386H364.957L360.187 312.914H342.379L347.149 282.386ZM376.405 249.314L388.595 241.364V237.76H364.215V241.364L376.405 249.314ZM391.139 282.386H408.417V312.914H391.139V282.386Z" fill="#CA74FF"/>
<path d="M249.524 247.83H261.608L278.992 232.248H250.054V216.242H302.948V232.248L296.482 238.82L309.308 262.776H290.44L284.292 251.116L272.738 262.776H249.524V247.83ZM211.258 296.166H246.662V312.278H211.258V296.166ZM211.258 274.224L225.356 257.158H212.636V241.046L222.918 215.394H241.256L231.398 241.046H245.178V257.158L232.564 274.224H246.662V290.336H211.258V274.224ZM249.524 295.742H270.3V282.174H249.524V266.168H308.036V282.174H287.366V295.742H308.036V311.854H249.524V295.742Z" fill="#CA74FF"/>
<path d="M109.074 272.21H158.788L171.084 261.504H115.328V246.558H195.676V261.504L182.85 272.21H202.142V287.156H172.568V311.854H128.154V296.908H155.396V287.156H109.074V272.21ZM110.028 218.468H146.81V211.896H164.088V218.468H200.976V242.636H183.698V233.414H127.094V242.636H110.028V218.468Z" fill="#CA74FF"/>
<path d="M66.25 287.05L55.332 263.2H73.14L75.366 268.076L77.38 264.048V242.212H71.656L69.854 253.66H54.166L59.466 216.772H75.578L74.094 226.206H97.202V242.212H92.75V268.288L83.74 286.202L95.718 312.172H77.698L74.412 304.964L70.808 312.172H54.06L66.25 287.05ZM0 300.83H7.208L13.568 296.908L5.406 291.502V281.326H0V269.878H5.406V266.274H19.186V269.878H32.436V266.274H47.064V269.878H52.576V281.326H47.064V291.502L38.478 297.226L44.414 300.83H52.576V312.278H36.358L26.182 305.494L16.006 312.278H0V300.83ZM3.392 248.466H16.96L13.78 264.684H0.106L3.392 248.466ZM0.106 234.792H17.702V216.666H34.874V234.792H52.576V246.24H34.874V264.684H17.702V246.24H0.106V234.792ZM12.932 217.726L15.688 232.99H2.756L0.106 217.726H12.932ZM25.864 289.382L32.436 285.354V281.326H19.186V285.354L25.864 289.382ZM49.502 248.466L52.576 264.684H38.69L35.616 248.466H49.502ZM39.644 217.726H52.576L49.714 232.99H36.888L39.644 217.726Z" fill="#CA74FF"/>
<path d="M977.711 155.076H1007.7V0.823975H1033.96V180.36H977.711V155.076ZM977.515 9.44798H1002.41V144.884H977.515V9.44798ZM1041.21 0.823975H1149.8V26.304H1109.81V46.884H1149.21V167.228H1113.73V141.944H1121.57V72.364H1109.81V180.36H1082.18V72.364H1070.42V167.228H1042.78V46.884H1082.18V26.304H1041.21V0.823975Z" fill="#CA74FF"/>
<path d="M802.683 82.9479H777.203V52.9599H802.683V33.1639L779.359 33.9479V4.15591L857.955 1.60791V31.2039L834.435 31.9879V52.9599H860.111V82.9479H834.435V180.36H802.683V82.9479ZM780.535 90.9839H799.547L796.215 180.36H777.203L780.535 90.9839ZM855.995 90.9839L859.327 180.36H840.315L836.983 90.9839H855.995ZM861.287 152.136H891.863V144.1H865.403V116.464H891.863V108.232H863.443V80.0079H952.427V108.232H923.811V116.464H950.467V144.1H923.811V152.136H954.387V180.556H861.287V152.136ZM863.443 1.60791H952.623V73.3439H863.443V1.60791ZM920.675 44.5319V30.4199H895.195V44.5319H920.675Z" fill="#CA74FF"/>
<path d="M579.83 149.98H653.134V31.4H586.886V1.80396H751.134V31.4H684.886V149.98H758.19V179.576H579.83V149.98Z" fill="#CA74FF"/>
<path d="M444.591 1.41211H564.151V69.0321H476.343V180.948H444.591V1.41211ZM383.439 151.156H396.767V128.028H383.439V98.0401H396.767V61.1921H383.439V31.4001H396.767V2.0001H428.323V31.4001H439.691V61.1921H428.323V98.0401H439.691V128.028H428.323V180.948H383.439V151.156ZM532.399 43.5521V27.0881H476.343V43.5521H532.399ZM481.831 122.148H507.115V109.016H481.831V83.5361H507.115V74.9121H539.063V83.5361H564.151V109.016H539.063V122.148H564.151V180.948H481.831V122.148ZM533.379 160.172V142.924H512.799V160.172H533.379Z" fill="#CA74FF"/>
<path d="M310.331 134.3L290.143 90.2H323.071L327.187 99.216L330.911 91.768V51.392H320.327L316.995 72.56H287.987L297.787 4.35201H327.579L324.835 21.796H367.563V51.392H359.331V99.608L342.671 132.732L364.819 180.752H331.499L325.423 167.424L318.759 180.752H287.791L310.331 134.3ZM187.831 159.78H201.159L212.919 152.528L197.827 142.532V123.716H187.831V102.548H197.827V95.884H223.307V102.548H247.807V95.884H274.855V102.548H285.047V123.716H274.855V142.532L258.979 153.116L269.955 159.78H285.047V180.948H255.059L236.243 168.404L217.427 180.948H187.831V159.78ZM194.103 62.956H219.191L213.311 92.944H188.027L194.103 62.956ZM188.027 37.672H220.563V4.15601H252.315V37.672H285.047V58.84H252.315V92.944H220.563V58.84H188.027V37.672ZM211.743 6.116L216.839 34.34H192.927L188.027 6.116H211.743ZM235.655 138.612L247.807 131.164V123.716H223.307V131.164L235.655 138.612ZM279.363 62.956L285.047 92.944H259.371L253.687 62.956H279.363ZM261.135 6.116H285.047L279.755 34.34H256.039L261.135 6.116Z" fill="#CA74FF"/>
<path d="M137.332 9.25195H169.672V180.948H137.332V9.25195Z" fill="#CA74FF"/>
<path d="M35.7382 9.25195H83.3662L117.666 180.948H85.3262L79.2502 150.568H39.8542L33.5822 180.948H1.24219L35.7382 9.25195ZM73.1742 120.384L59.4542 51.98L45.9302 120.384H73.1742Z" fill="#CA74FF"/>
</svg>
