<svg xmlns="http://www.w3.org/2000/svg" viewBox="0 0 450 500" width="450" height="500" preserveAspectRatio="xMidYMid meet" style="width: 100%; height: 100%; transform: translate3d(0px, 0px, 0px);">
	<defs>
		<clipPath id="__lottie_element_22">
			<rect width="450" height="500" x="0" y="0">
			</rect>
		</clipPath>
	</defs>
	<g clip-path="url(#__lottie_element_22)">
		<g transform="matrix(1,0,0,1,225.00100708007812,250)" opacity="1" style="display: block;">
			<g opacity="1" transform="matrix(1,0,0,1,0,0)">
				<path stroke-linecap="round" stroke-linejoin="miter" fill-opacity="0" stroke-miterlimit="4" stroke="rgb(41,25,62)" stroke-opacity="1" stroke-width="21" d=" M-182.25,67.5 C-182.25,67.5 -160.75,31.864999771118164 -121,15">
				</path>
			</g>
			<g opacity="1" transform="matrix(1,0,0,1,0,0)">
				<path stroke-linecap="round" stroke-linejoin="miter" fill-opacity="0" stroke-miterlimit="4" stroke="rgb(54,97,207)" stroke-opacity="1" stroke-width="9" d=" M-182.25,67.5 C-182.25,67.5 -160.75,31.864999771118164 -121,15">
				</path>
			</g>
		</g>
		<g transform="matrix(1,0,0,1,225.00100708007812,250)" opacity="1" style="display: block;">
			<g opacity="1" transform="matrix(1,0,0,1,-182.3800048828125,68.28399658203125)">
				<path fill="rgb(54,97,207)" fill-opacity="1" d=" M0,-15.204000473022461 C8.391087532043457,-15.204000473022461 15.204000473022461,-8.391087532043457 15.204000473022461,0 C15.204000473022461,8.391087532043457 8.391087532043457,15.204000473022461 0,15.204000473022461 C-8.391087532043457,15.204000473022461 -15.204000473022461,8.391087532043457 -15.204000473022461,0 C-15.204000473022461,-8.391087532043457 -8.391087532043457,-15.204000473022461 0,-15.204000473022461z">
				</path>
			</g>
			<g opacity="1" transform="matrix(1,0,0,1,-182.3800048828125,68.28399658203125)">
				<path stroke-linecap="round" stroke-linejoin="miter" fill-opacity="0" stroke-miterlimit="4" stroke="rgb(41,25,62)" stroke-opacity="1" stroke-width="6" d=" M13.668000221252441,-6.663000106811523 C14.652000427246094,-4.651000022888184 15.204000473022461,-2.3889999389648438 15.204000473022461,0 C15.204000473022461,8.391087532043457 8.391087532043457,15.204000473022461 0,15.204000473022461 C-8.391087532043457,15.204000473022461 -15.204000473022461,8.391087532043457 -15.204000473022461,0 C-15.204000473022461,-8.391087532043457 -8.391087532043457,-15.204000473022461 0,-15.204000473022461 C0,-15.204000473022461 0,-15.204000473022461 0,-15.204000473022461 C0.25,-15.204000473022461 0.49799999594688416,-15.197999954223633 0.7450000047683716,-15.185999870300293">
				</path>
			</g>
		</g>
		<g transform="matrix(-1,0,0,1,232.00100708007812,250)" opacity="1" style="display: block;">
			<g opacity="1" transform="matrix(1,0,0,1,0,0)">
				<path stroke-linecap="round" stroke-linejoin="miter" fill-opacity="0" stroke-miterlimit="4" stroke="rgb(41,25,62)" stroke-opacity="1" stroke-width="21" d=" M-182.25,67.5 C-182.25,67.5 -160.75,31.864999771118164 -121,15">
				</path>
			</g>
			<g opacity="1" transform="matrix(1,0,0,1,0,0)">
				<path stroke-linecap="round" stroke-linejoin="miter" fill-opacity="0" stroke-miterlimit="4" stroke="rgb(54,97,207)" stroke-opacity="1" stroke-width="9" d=" M-182.25,67.5 C-182.25,67.5 -160.75,31.864999771118164 -121,15">
				</path>
			</g>
		</g>
		<g transform="matrix(-1,0,0,1,232,250)" opacity="1" style="display: block;">
			<g opacity="1" transform="matrix(1,0,0,1,-182.3800048828125,68.28399658203125)">
				<path fill="rgb(54,97,207)" fill-opacity="1" d=" M0,-15.204000473022461 C8.391087532043457,-15.204000473022461 15.204000473022461,-8.391087532043457 15.204000473022461,0 C15.204000473022461,8.391087532043457 8.391087532043457,15.204000473022461 0,15.204000473022461 C-8.391087532043457,15.204000473022461 -15.204000473022461,8.391087532043457 -15.204000473022461,0 C-15.204000473022461,-8.391087532043457 -8.391087532043457,-15.204000473022461 0,-15.204000473022461z">
				</path>
			</g>
			<g opacity="1" transform="matrix(1,0,0,1,-182.3800048828125,68.28399658203125)">
				<path stroke-linecap="round" stroke-linejoin="miter" fill-opacity="0" stroke-miterlimit="4" stroke="rgb(41,25,62)" stroke-opacity="1" stroke-width="6" d=" M13.668000221252441,-6.663000106811523 C14.652000427246094,-4.651000022888184 15.204000473022461,-2.3889999389648438 15.204000473022461,0 C15.204000473022461,8.391087532043457 8.391087532043457,15.204000473022461 0,15.204000473022461 C-8.391087532043457,15.204000473022461 -15.204000473022461,8.391087532043457 -15.204000473022461,0 C-15.204000473022461,-8.391087532043457 -8.391087532043457,-15.204000473022461 0,-15.204000473022461 C0,-15.204000473022461 0,-15.204000473022461 0,-15.204000473022461 C0.25,-15.204000473022461 0.49799999594688416,-15.197999954223633 0.7450000047683716,-15.185999870300293">
				</path>
			</g>
		</g>
		<g transform="matrix(1,0,0,1,225.00100708007812,250)" opacity="1" style="display: block;">
			<g opacity="1" transform="matrix(1,0,0,1,0,0)">
				<path stroke-linecap="round" stroke-linejoin="miter" fill-opacity="0" stroke-miterlimit="4" stroke="rgb(41,25,62)" stroke-opacity="1" stroke-width="21" d=" M-53.0620002746582,140.75 C-53.0620002746582,140.75 -56.25,200.5 -36.25,229">
				</path>
			</g>
			<g opacity="1" transform="matrix(1,0,0,1,0,0)">
				<path stroke-linecap="round" stroke-linejoin="miter" fill-opacity="0" stroke-miterlimit="4" stroke="rgb(54,97,207)" stroke-opacity="1" stroke-width="9" d=" M-53.0620002746582,140.75 C-53.0620002746582,140.75 -56.25,200.5 -36.25,229">
				</path>
			</g>
		</g>
		<g transform="matrix(1,0,0,1,225,250)" opacity="1" style="display: block;">
			<g opacity="1" transform="matrix(1,0,0,1,0,0)">
				<path fill="rgb(54,97,207)" fill-opacity="1" d=" M-31.875,220.25 C-31.875,220.25 -46.75,221 -46.75,221 C-46.75,221 -69,224.5 -69,235 C-69,241.75 -62,241.25 -59.25,241.25 C-56.5,241.25 -31.25,241.25 -31.25,241.25 C-31.25,241.25 -26.125,241 -26.125,236.125 C-26.125,231.25 -31.875,220.25 -31.875,220.25z">
				</path>
			</g>
			<g opacity="1" transform="matrix(1,0,0,1,0,0)">
				<path stroke-linecap="round" stroke-linejoin="miter" fill-opacity="0" stroke-miterlimit="4" stroke="rgb(41,25,62)" stroke-opacity="1" stroke-width="6" d=" M-49.625,221.625 C-49.625,221.625 -69.125,226.125 -68.875,235 C-68.66400146484375,242.50100708007812 -59.25,241.375 -59.25,241.375 C-59.25,241.375 -31.125,241.25 -31.125,241.25 C-31.125,241.25 -25.75,240.5 -26.125,236.125 C-26.5,231.75 -28.961000442504883,228.3000030517578 -30.5,223.875 C-31.5,221 -33.875,218.375 -33.875,218.375">
				</path>
			</g>
		</g>
		<g transform="matrix(-1,0,0,1,226.00099182128906,250)" opacity="1" style="display: block;">
			<g opacity="1" transform="matrix(1,0,0,1,0,0)">
				<path stroke-linecap="round" stroke-linejoin="miter" fill-opacity="0" stroke-miterlimit="4" stroke="rgb(41,25,62)" stroke-opacity="1" stroke-width="21" d=" M-53.0620002746582,140.75 C-53.0620002746582,140.75 -56.25,200.5 -36.25,229">
				</path>
			</g>
			<g opacity="1" transform="matrix(1,0,0,1,0,0)">
				<path stroke-linecap="round" stroke-linejoin="miter" fill-opacity="0" stroke-miterlimit="4" stroke="rgb(54,97,207)" stroke-opacity="1" stroke-width="9" d=" M-53.0620002746582,140.75 C-53.0620002746582,140.75 -56.25,200.5 -36.25,229">
				</path>
			</g>
		</g>
		<g transform="matrix(-1,0,0,1,225.99998474121094,250)" opacity="1" style="display: block;">
			<g opacity="1" transform="matrix(1,0,0,1,0,0)">
				<path fill="rgb(54,97,207)" fill-opacity="1" d=" M-31.875,220.25 C-31.875,220.25 -46.75,221 -46.75,221 C-46.75,221 -69,224.5 -69,235 C-69,241.75 -62,241.25 -59.25,241.25 C-56.5,241.25 -31.25,241.25 -31.25,241.25 C-31.25,241.25 -26.125,241 -26.125,236.125 C-26.125,231.25 -31.875,220.25 -31.875,220.25z">
				</path>
			</g>
			<g opacity="1" transform="matrix(1,0,0,1,0,0)">
				<path stroke-linecap="round" stroke-linejoin="miter" fill-opacity="0" stroke-miterlimit="4" stroke="rgb(41,25,62)" stroke-opacity="1" stroke-width="6" d=" M-49.625,221.625 C-49.625,221.625 -69.125,226.125 -68.875,235 C-68.66400146484375,242.50100708007812 -59.25,241.375 -59.25,241.375 C-59.25,241.375 -31.125,241.25 -31.125,241.25 C-31.125,241.25 -25.75,240.5 -26.125,236.125 C-26.5,231.75 -28.961000442504883,228.3000030517578 -30.5,223.875 C-31.5,221 -33.875,218.375 -33.875,218.375">
				</path>
			</g>
		</g>
		<g transform="matrix(1,0,0,1,88.53900146484375,119)" opacity="1" style="display: block;">
			<g opacity="1" transform="matrix(1,0,0,1,137.8209991455078,156.02099609375)">
				<path fill="rgb(54,96,207)" fill-opacity="1" d=" M131.81900024414062,-75.01000213623047 C131.81900024414062,-75.01000213623047 0.0010000000474974513,-150.02099609375 0.0010000000474974513,-150.02099609375 C0.0010000000474974513,-150.02099609375 -131.8179931640625,-75.01000213623047 -131.8179931640625,-75.01000213623047 C-131.8179931640625,-75.01000213623047 -131.8179931640625,75.01000213623047 -131.8179931640625,75.01000213623047 C-131.8179931640625,75.01000213623047 0.0010000000474974513,150.02099609375 0.0010000000474974513,150.02099609375 C0.0010000000474974513,150.02099609375 131.81900024414062,75.01000213623047 131.81900024414062,75.01000213623047 C131.81900024414062,75.01000213623047 131.81900024414062,-75.01000213623047 131.81900024414062,-75.01000213623047z M94.53600311279297,-54.020999908447266 C94.53600311279297,-54.020999908447266 0.13899999856948853,-108.02100372314453 0.13899999856948853,-108.02100372314453 C0.13899999856948853,-108.02100372314453 -94.25700378417969,-54.020999908447266 -94.25700378417969,-54.020999908447266 C-94.25700378417969,-54.020999908447266 -94.25700378417969,53.979000091552734 -94.25700378417969,53.979000091552734 C-94.25700378417969,53.979000091552734 0.13899999856948853,107.97899627685547 0.13899999856948853,107.97899627685547 C0.13899999856948853,107.97899627685547 94.53600311279297,53.979000091552734 94.53600311279297,53.979000091552734 C94.53600311279297,53.979000091552734 94.53600311279297,-54.020999908447266 94.53600311279297,-54.020999908447266z">
				</path>
			</g>
			<g opacity="1" transform="matrix(1,0,0,1,137.96299743652344,156)">
				<path fill="rgb(255,255,255)" fill-opacity="1" d=" M0,-108 C0,-108 94.39700317382812,-54 94.39700317382812,-54 C94.39700317382812,-54 94.39700317382812,54 94.39700317382812,54 C94.39700317382812,54 0,108 0,108 C0,108 -94.39700317382812,54 -94.39700317382812,54 C-94.39700317382812,54 -94.39700317382812,-54 -94.39700317382812,-54 C-94.39700317382812,-54 0,-108 0,-108z">
				</path>
			</g>
			<g opacity="1" transform="matrix(1,0,0,1,137.8179931640625,156.02099609375)">
				<path stroke-linecap="round" stroke-linejoin="round" fill-opacity="0" stroke="rgb(41,24,61)" stroke-opacity="1" stroke-width="6" d=" M0.0010000000474974513,-150.02099609375 C0.0010000000474974513,-150.02099609375 131.8179931640625,-75.01000213623047 131.8179931640625,-75.01000213623047 C131.8179931640625,-75.01000213623047 131.8179931640625,75.01100158691406 131.8179931640625,75.01100158691406 C131.8179931640625,75.01100158691406 0.0010000000474974513,150.02099609375 0.0010000000474974513,150.02099609375 C0.0010000000474974513,150.02099609375 -131.8179931640625,75.01100158691406 -131.8179931640625,75.01100158691406 C-131.8179931640625,75.01100158691406 -131.8179931640625,-75.01000213623047 -131.8179931640625,-75.01000213623047 C-131.8179931640625,-75.01000213623047 0.0010000000474974513,-150.02099609375 0.0010000000474974513,-150.02099609375z">
				</path>
			</g>
			<g opacity="1" transform="matrix(1,0,0,1,137.9600067138672,156)">
				<path stroke-linecap="round" stroke-linejoin="round" fill-opacity="0" stroke="rgb(41,24,61)" stroke-opacity="1" stroke-width="6" d=" M0.0010000000474974513,-108 C0.0010000000474974513,-108 94.39600372314453,-54 94.39600372314453,-54 C94.39600372314453,-54 94.39600372314453,54 94.39600372314453,54 C94.39600372314453,54 0.0010000000474974513,108 0.0010000000474974513,108 C0.0010000000474974513,108 -94.39600372314453,54 -94.39600372314453,54 C-94.39600372314453,54 -94.39600372314453,-54 -94.39600372314453,-54 C-94.39600372314453,-54 0.0010000000474974513,-108 0.0010000000474974513,-108z">
				</path>
			</g>
		</g>
		<g transform="matrix(1,0,0,1,174.9630126953125,268.1619873046875)" opacity="1" style="display: block;">
			<g opacity="1" transform="matrix(1,0,0,1,96.61000061035156,8.277000427246094)">
				<path fill="rgb(41,24,61)" fill-opacity="1" d=" M0.0010000000474974513,-8.027000427246094 C4.434000015258789,-8.027000427246094 8.027000427246094,-4.433000087738037 8.027000427246094,0 C8.027000427246094,4.433000087738037 4.434000015258789,8.027000427246094 0.0010000000474974513,8.027000427246094 C-4.433000087738037,8.027000427246094 -8.027000427246094,4.433000087738037 -8.027000427246094,0 C-8.027000427246094,-4.433000087738037 -4.433000087738037,-8.027000427246094 0.0010000000474974513,-8.027000427246094z">
				</path>
			</g>
			<g opacity="1" transform="matrix(1,0,0,1,8.277000427246094,8.277000427246094)">
				<path fill="rgb(41,24,61)" fill-opacity="1" d=" M0,-8.027000427246094 C4.434000015258789,-8.027000427246094 8.027000427246094,-4.433000087738037 8.027000427246094,0 C8.027000427246094,4.433000087738037 4.434000015258789,8.027000427246094 0,8.027000427246094 C-4.433000087738037,8.027000427246094 -8.027000427246094,4.433000087738037 -8.027000427246094,0 C-8.027000427246094,-4.433000087738037 -4.433000087738037,-8.027000427246094 0,-8.027000427246094z">
				</path>
			</g>
		</g>
		<g transform="matrix(1,0,0,1,225.00201416015625,379.2149963378906)" opacity="1" style="display: block;">
			<g opacity="1" transform="matrix(1,0,0,1,0,0)">
				<path fill="rgb(41,25,62)" fill-opacity="1" d=" M-1.312000036239624,-99.8479995727539 C-2.9769999980926514,-105.20099639892578 -8.987000465393066,-103.5469970703125 -7.811999797821045,-98.8479995727539 C-6.874000072479248,-95.0979995727539 -3.812000036239624,-90.18800354003906 2.937999963760376,-90.18800354003906 C8.812999725341797,-90.18800354003906 12.625,-93.625 13.125,-99 C13.63599967956543,-104.49400329589844 7.938000202178955,-104.31199645996094 6.938000202178955,-100 C6.188000202178955,-97.31199645996094 4.625,-96.375 3,-96.25 C1.375,-96.125 -0.43700000643730164,-97.03600311279297 -1.312000036239624,-99.8479995727539z">
				</path>
				<path stroke-linecap="butt" stroke-linejoin="miter" fill-opacity="0" stroke-miterlimit="4" stroke="rgb(41,25,62)" stroke-opacity="1" stroke-width="0" d=" M-1.312000036239624,-99.8479995727539 C-2.9769999980926514,-105.20099639892578 -8.987000465393066,-103.5469970703125 -7.811999797821045,-98.8479995727539 C-6.874000072479248,-95.0979995727539 -3.812000036239624,-90.18800354003906 2.937999963760376,-90.18800354003906 C8.812999725341797,-90.18800354003906 12.625,-93.625 13.125,-99 C13.63599967956543,-104.49400329589844 7.938000202178955,-104.31199645996094 6.938000202178955,-100 C6.188000202178955,-97.31199645996094 4.625,-96.375 3,-96.25 C1.375,-96.125 -0.43700000643730164,-97.03600311279297 -1.312000036239624,-99.8479995727539z">
				</path>
			</g>
		</g>
	</g>
</svg>
